ISO-10303-21;
HEADER;
FILE_DESCRIPTION (( 'STEP AP203' ),
    '1' );
FILE_NAME ('Part_0_LINK_0_Default_sldprt.STEP',
    '2026-08-12T06:34:35',
    ( '' ),
    ( '' ),
    'SwSTEP 2.0',
    'SolidWorks 2025',
    '' );
FILE_SCHEMA (( 'CONFIG_CONTROL_DESIGN' ));
ENDSEC;

DATA;
#1 = DIRECTION ( 'NONE',  ( 0.000000000000000000, 0.000000000000000000, 1.000000000000000000 ) ) ;
#2 = CC_DESIGN_PERSON_AND_ORGANIZATION_ASSIGNMENT ( #471, #42, ( #630 ) ) ;
#3 = DIRECTION ( 'NONE',  ( 1.000000000000000000, 0.000000000000000000, 0.000000000000000000 ) ) ;
#4 = DIRECTION ( 'NONE',  ( 0.000000000000000000, 0.000000000000000000, -1.000000000000000000 ) ) ;
#5 = CIRCLE ( 'NONE', #553, 10.00000000000000000 ) ;
#6 = CARTESIAN_POINT ( 'NONE',  ( 21.67397541706438702, 20.35278770340660870, 8.133437541825138339 ) ) ;
#7 = ORIENTED_EDGE ( 'NONE', *, *, #725, .T. ) ;
#8 = ADVANCED_FACE ( 'NONE', ( #614 ), #354, .T. ) ;
#9 = DIRECTION ( 'NONE',  ( -0.000000000000000000, -0.000000000000000000, 1.000000000000000000 ) ) ;
#10 = CARTESIAN_POINT ( 'NONE',  ( 23.59215949665084366, 23.52551394997657397, 5.207092822824177070 ) ) ;
#11 = VERTEX_POINT ( 'NONE', #930 ) ;
#12 = CC_DESIGN_PERSON_AND_ORGANIZATION_ASSIGNMENT ( #134, #478, ( #368 ) ) ;
#13 = DIRECTION ( 'NONE',  ( -1.000000000000000000, 0.000000000000000000, 0.000000000000000000 ) ) ;
#14 = EDGE_CURVE ( 'NONE', #775, #11, #290, .T. ) ;
#15 = CARTESIAN_POINT ( 'NONE',  ( -33.21691543556092086, 22.15140803488547050, -5.887216009226427182 ) ) ;
#16 = CARTESIAN_POINT ( 'NONE',  ( 23.56768312131463361, 23.70890734820875423, -5.165848198339834774 ) ) ;
#17 = EDGE_LOOP ( 'NONE', ( #649, #764, #127, #633 ) ) ;
#18 = LOCAL_TIME ( 12, 4, 35.00000000000000000, #297 ) ;
#19 = AXIS2_PLACEMENT_3D ( 'NONE', #685, #1001, #266 ) ;
#20 = FACE_OUTER_BOUND ( 'NONE', #384, .T. ) ;
#21 = DIRECTION ( 'NONE',  ( 1.000000000000000000, 0.000000000000000000, 0.000000000000000000 ) ) ;
#22 = CARTESIAN_POINT ( 'NONE',  ( 0.000000000000000000, -1.000000000000000888, 75.00000000000001421 ) ) ;
#23 = CARTESIAN_POINT ( 'NONE',  ( 23.39881918296133279, 24.63801272107015095, 5.000000000000001776 ) ) ;
#24 = AXIS2_PLACEMENT_3D ( 'NONE', #667, #317, #415 ) ;
#25 = ORIENTED_EDGE ( 'NONE', *, *, #721, .F. ) ;
#26 = CARTESIAN_POINT ( 'NONE',  ( -31.95637634460516452, 20.00000000000000355, 6.667826932632639370 ) ) ;
#27 = LINE ( 'NONE', #273, #389 ) ;
#28 = AXIS2_PLACEMENT_3D ( 'NONE', #341, #523, #993 ) ;
#29 = CARTESIAN_POINT ( 'NONE',  ( -34.64854121788259533, 25.00000000000000711, 5.000000000000001776 ) ) ;
#30 = CARTESIAN_POINT ( 'NONE',  ( -36.02119190199098853, 41.30284372434919504, 5.000000000000001776 ) ) ;
#31 = EDGE_CURVE ( 'NONE', #112, #141, #466, .T. ) ;
#32 = EDGE_LOOP ( 'NONE', ( #307, #839, #351, #408 ) ) ;
#33 = SECURITY_CLASSIFICATION_LEVEL ( 'unclassified' ) ;
#34 = VERTEX_POINT ( 'NONE', #328 ) ;
#35 = DIRECTION ( 'NONE',  ( -0.000000000000000000, -0.000000000000000000, -1.000000000000000000 ) ) ;
#36 = DIRECTION ( 'NONE',  ( -1.000000000000000000, 0.000000000000000000, 0.000000000000000000 ) ) ;
#37 = VERTEX_POINT ( 'NONE', #524 ) ;
#38 = CARTESIAN_POINT ( 'NONE',  ( -36.22579184107235761, 20.00000000000000355, 2.500000000000055955 ) ) ;
#39 = DIRECTION ( 'NONE',  ( 0.000000000000000000, 1.000000000000000000, 0.000000000000000000 ) ) ;
#40 = DIRECTION ( 'NONE',  ( -0.000000000000000000, -0.000000000000000000, -1.000000000000000000 ) ) ;
#41 = EDGE_LOOP ( 'NONE', ( #215, #151, #545, #85 ) ) ;
#42 = PERSON_AND_ORGANIZATION_ROLE ( 'creator' ) ;
#43 = CARTESIAN_POINT ( 'NONE',  ( 61.47880809800906832, 41.30284372434919504, 5.000000000000001776 ) ) ;
#44 = EDGE_CURVE ( 'NONE', #199, #212, #666, .T. ) ;
#45 = CARTESIAN_POINT ( 'NONE',  ( 0.000000000000000000, 100.0000000000000000, 4.999999999999998224 ) ) ;
#46 = CARTESIAN_POINT ( 'NONE',  ( 0.000000000000000000, 20.00000000000000355, 0.000000000000000000 ) ) ;
#47 = CIRCLE ( 'NONE', #179, 75.00000000000001421 ) ;
#48 = VECTOR ( 'NONE', #254, 1000.000000000000000 ) ;
#49 = ORIENTED_EDGE ( 'NONE', *, *, #192, .T. ) ;
#50 = CARTESIAN_POINT ( 'NONE',  ( -9.041001190883752869, 108.6319347464192901, 5.000000000000001776 ) ) ;
#51 = ADVANCED_FACE ( 'NONE', ( #699 ), #534, .T. ) ;
#52 = B_SPLINE_CURVE_WITH_KNOTS ( 'NONE', 3,
 ( #511, #760, #528, #902, #345, #441, #824 ),
 .UNSPECIFIED., .F., .F.,
 ( 4, 3, 4 ),
 ( 1.815771614269358398E-17, 0.003676563860151905744, 0.01101690608089135950 ),
 .UNSPECIFIED. ) ;
#53 = ORIENTED_EDGE ( 'NONE', *, *, #84, .F. ) ;
#54 = CYLINDRICAL_SURFACE ( 'NONE', #306, 15.00000000000001066 ) ;
#55 = PERSON_AND_ORGANIZATION ( #939, #975 ) ;
#56 = CC_DESIGN_SECURITY_CLASSIFICATION ( #405, ( #368 ) ) ;
#57 = FACE_OUTER_BOUND ( 'NONE', #960, .T. ) ;
#58 = ORIENTED_EDGE ( 'NONE', *, *, #643, .F. ) ;
#59 = VECTOR ( 'NONE', #364, 1000.000000000000000 ) ;
#60 = FACE_OUTER_BOUND ( 'NONE', #780, .T. ) ;
#61 = AXIS2_PLACEMENT_3D ( 'NONE', #866, #40, #783 ) ;
#62 = ORIENTED_EDGE ( 'NONE', *, *, #458, .T. ) ;
#63 = CARTESIAN_POINT ( 'NONE',  ( -36.22579184107235761, 20.00000000000000355, 2.500000000000055955 ) ) ;
#64 = CIRCLE ( 'NONE', #113, 5.000000000000004441 ) ;
#65 = ADVANCED_FACE ( 'NONE', ( #246 ), #624, .F. ) ;
#66 = DIRECTION ( 'NONE',  ( -1.000000000000000000, 0.000000000000000000, 0.000000000000000000 ) ) ;
#67 = ORIENTED_EDGE ( 'NONE', *, *, #109, .T. ) ;
#68 = CARTESIAN_POINT ( 'NONE',  ( 61.47880809800906832, 41.30284372434919504, -2.499999999999888534 ) ) ;
#69 = CARTESIAN_POINT ( 'NONE',  ( -38.52119190199092458, 41.30284372434919504, 2.500000000000055067 ) ) ;
#70 = ORIENTED_EDGE ( 'NONE', *, *, #154, .T. ) ;
#71 = CARTESIAN_POINT ( 'NONE',  ( 25.18247520500340997, 20.00000000000001421, -5.000000000000001776 ) ) ;
#72 = VECTOR ( 'NONE', #252, 1000.000000000000227 ) ;
#73 = DIRECTION ( 'NONE',  ( 0.000000000000000000, 1.000000000000000000, 0.000000000000000000 ) ) ;
#74 = CARTESIAN_POINT ( 'NONE',  ( 21.91524565448184347, 20.46768433596908920, -7.866903080162898299 ) ) ;
#75 = ORIENTED_EDGE ( 'NONE', *, *, #211, .F. ) ;
#76 = CARTESIAN_POINT ( 'NONE',  ( -29.74854963285016396, 20.10150449509170656, 8.842002711906754797 ) ) ;
#77 = EDGE_LOOP ( 'NONE', ( #372, #110, #493, #1043 ) ) ;
#78 = AXIS2_PLACEMENT_3D ( 'NONE', #729, #155, #661 ) ;
#79 = FACE_OUTER_BOUND ( 'NONE', #791, .T. ) ;
#80 = ORIENTED_EDGE ( 'NONE', *, *, #807, .F. ) ;
#81 = CARTESIAN_POINT ( 'NONE',  ( -33.91738051178395352, 23.06354783751810089, 5.376477671157577909 ) ) ;
#82 = DIRECTION ( 'NONE',  ( 0.000000000000000000, 1.000000000000000000, 0.000000000000000000 ) ) ;
#83 = CARTESIAN_POINT ( 'NONE',  ( 23.59332694919810791, 23.16526409794536079, 5.333171005098477302 ) ) ;
#84 = EDGE_CURVE ( 'NONE', #879, #400, #682, .T. ) ;
#85 = ORIENTED_EDGE ( 'NONE', *, *, #130, .T. ) ;
#86 = DIRECTION ( 'NONE',  ( -1.000000000000000000, 0.000000000000000000, 0.000000000000000000 ) ) ;
#87 = CARTESIAN_POINT ( 'NONE',  ( -34.11496420974422250, 23.42858594649825932, -5.249692772608595348 ) ) ;
#88 = DIRECTION ( 'NONE',  ( -1.000000000000000000, 0.000000000000000000, 0.000000000000000000 ) ) ;
#89 = ORIENTED_EDGE ( 'NONE', *, *, #186, .F. ) ;
#90 = EDGE_CURVE ( 'NONE', #1000, #141, #27, .T. ) ;
#91 = VECTOR ( 'NONE', #812, 1000.000000000000000 ) ;
#92 = CARTESIAN_POINT ( 'NONE',  ( 61.47880809800906832, 41.30284372434919504, 5.000000000000001776 ) ) ;
#93 = VECTOR ( 'NONE', #256, 1000.000000000000000 ) ;
#94 = LINE ( 'NONE', #989, #757 ) ;
#95 = AXIS2_PLACEMENT_3D ( 'NONE', #1014, #618, #370 ) ;
#96 = CARTESIAN_POINT ( 'NONE',  ( -9.041001190883607208, 108.6319347464191480, -5.000000000000001776 ) ) ;
#97 = EDGE_LOOP ( 'NONE', ( #1057, #62 ) ) ;
#98 = CARTESIAN_POINT ( 'NONE',  ( -10.84920142906043417, 110.3583216957030828, 5.000000000000001776 ) ) ;
#99 = DIRECTION ( 'NONE',  ( 0.000000000000000000, 0.000000000000000000, 1.000000000000000000 ) ) ;
#100 = CARTESIAN_POINT ( 'NONE',  ( 23.26613840166224989, 25.00000000000000711, -5.000000000000001776 ) ) ;
#101 = ADVANCED_FACE ( 'NONE', ( #208 ), #766, .F. ) ;
#102 = CARTESIAN_POINT ( 'NONE',  ( 0.000000000000000000, 100.0000000000000000, 10.00000000000000178 ) ) ;
#103 = ORIENTED_EDGE ( 'NONE', *, *, #462, .T. ) ;
#104 = CARTESIAN_POINT ( 'NONE',  ( 0.000000000000000000, 100.0000000000000000, -5.000000000000001776 ) ) ;
#105 = ORIENTED_EDGE ( 'NONE', *, *, #772, .F. ) ;
#106 = ADVANCED_FACE ( 'NONE', ( #360 ), #798, .T. ) ;
#107 = CYLINDRICAL_SURFACE ( 'NONE', #559, 180.0000000000000284 ) ;
#108 = CARTESIAN_POINT ( 'NONE',  ( 20.08843743530413306, 20.00000000000000711, 9.738924587762063823 ) ) ;
#109 = EDGE_CURVE ( 'NONE', #117, #571, #995, .T. ) ;
#110 = ORIENTED_EDGE ( 'NONE', *, *, #712, .F. ) ;
#111 = AXIS2_PLACEMENT_3D ( 'NONE', #726, #744, #972 ) ;
#112 = VERTEX_POINT ( 'NONE', #694 ) ;
#113 = AXIS2_PLACEMENT_3D ( 'NONE', #755, #695, #342 ) ;
#114 = CARTESIAN_POINT ( 'NONE',  ( 0.000000000000000000, 100.0000000000000000, 4.999999999999998224 ) ) ;
#115 = EDGE_CURVE ( 'NONE', #271, #1017, #407, .T. ) ;
#116 = CARTESIAN_POINT ( 'NONE',  ( 0.000000000000000000, 100.0000000000000000, 5.000000000000001776 ) ) ;
#117 = VERTEX_POINT ( 'NONE', #606 ) ;
#118 = DIRECTION ( 'NONE',  ( 1.000000000000000000, 0.000000000000000000, 0.000000000000000000 ) ) ;
#119 = DIRECTION ( 'NONE',  ( -1.000000000000000000, 0.000000000000000000, 0.000000000000000000 ) ) ;
#120 = CARTESIAN_POINT ( 'NONE',  ( 61.47880809800906832, 41.30284372434919504, -2.499999999999888534 ) ) ;
#121 = ORIENTED_EDGE ( 'NONE', *, *, #977, .F. ) ;
#122 = DIRECTION ( 'NONE',  ( -1.000000000000000000, 0.000000000000000000, 0.000000000000000000 ) ) ;
#123 = APPLICATION_PROTOCOL_DEFINITION ( 'international standard', 'config_control_design', 1994, #238 ) ;
#124 = CARTESIAN_POINT ( 'NONE',  ( 194.6183915816770877, 87.80649114647422948, 2.500000000000055067 ) ) ;
#125 = DIRECTION ( 'NONE',  ( 0.000000000000000000, -0.000000000000000000, 1.000000000000000000 ) ) ;
#126 = AXIS2_PLACEMENT_3D ( 'NONE', #167, #904, #536 ) ;
#127 = ORIENTED_EDGE ( 'NONE', *, *, #650, .T. ) ;
#128 = CARTESIAN_POINT ( 'NONE',  ( 10.00000000000000000, 100.0000000000000000, 7.499999999999973355 ) ) ;
#129 = CARTESIAN_POINT ( 'NONE',  ( 0.000000000000000000, 0.000000000000000000, 0.000000000000000000 ) ) ;
#130 = EDGE_CURVE ( 'NONE', #505, #705, #5, .T. ) ;
#131 = DIRECTION ( 'NONE',  ( 0.000000000000000000, 0.000000000000000000, -1.000000000000000000 ) ) ;
#132 = VECTOR ( 'NONE', #304, 1000.000000000000000 ) ;
#133 = EDGE_LOOP ( 'NONE', ( #768, #242, #532, #300 ) ) ;
#134 = PERSON_AND_ORGANIZATION ( #939, #975 ) ;
#135 = CARTESIAN_POINT ( 'NONE',  ( 5.000000000000001776, 100.0000000000000000, 4.999999999999998224 ) ) ;
#136 = ORIENTED_EDGE ( 'NONE', *, *, #597, .F. ) ;
#137 = SHAPE_DEFINITION_REPRESENTATION ( #440, #426 ) ;
#138 =( GEOMETRIC_REPRESENTATION_CONTEXT ( 3 ) GLOBAL_UNCERTAINTY_ASSIGNED_CONTEXT ( ( #157 ) ) GLOBAL_UNIT_ASSIGNED_CONTEXT ( ( #292, #628, #792 ) ) REPRESENTATION_CONTEXT ( 'NONE', 'WORKASPACE' ) );
#139 = CARTESIAN_POINT ( 'NONE',  ( 61.47880809800906832, 41.30284372434919504, -5.000000000000001776 ) ) ;
#140 = EDGE_CURVE ( 'NONE', #653, #34, #352, .T. ) ;
#141 = VERTEX_POINT ( 'NONE', #554 ) ;
#142 = DIRECTION ( 'NONE',  ( 0.7071067811865465735, 8.659560562354921765E-17, -0.7071067811865485719 ) ) ;
#143 = DIRECTION ( 'NONE',  ( -1.000000000000000000, 0.000000000000000000, 0.000000000000000000 ) ) ;
#144 = AXIS2_PLACEMENT_3D ( 'NONE', #1056, #652, #324 ) ;
#145 = ORIENTED_EDGE ( 'NONE', *, *, #862, .F. ) ;
#146 = CARTESIAN_POINT ( 'NONE',  ( 0.000000000000000000, 15.00000000000000355, 0.000000000000000000 ) ) ;
#147 = AXIS2_PLACEMENT_3D ( 'NONE', #814, #806, #241 ) ;
#148 = ORIENTED_EDGE ( 'NONE', *, *, #998, .T. ) ;
#149 = CARTESIAN_POINT ( 'NONE',  ( 23.26613840166247371, 25.00000000000000711, 5.000000000000001776 ) ) ;
#150 = MANIFOLD_SOLID_BREP ( 'Cut-Extrude1', #740 ) ;
#151 = ORIENTED_EDGE ( 'NONE', *, *, #323, .T. ) ;
#152 = CARTESIAN_POINT ( 'NONE',  ( -31.84676296814870611, 20.99498722724813149, 6.990806677189060458 ) ) ;
#153 = B_SPLINE_CURVE_WITH_KNOTS ( 'NONE', 3,
 ( #1032, #298, #371, #636, #217, #871, #1046 ),
 .UNSPECIFIED., .F., .F.,
 ( 4, 3, 4 ),
 ( 9.511364005193116742E-18, 0.003578422578203121172, 0.01074254768885533201 ),
 .UNSPECIFIED. ) ;
#154 = EDGE_CURVE ( 'NONE', #402, #561, #245, .T. ) ;
#155 = DIRECTION ( 'NONE',  ( 0.000000000000000000, 0.000000000000000000, -1.000000000000000000 ) ) ;
#156 = LOCAL_TIME ( 12, 4, 35.00000000000000000, #776 ) ;
#157 = UNCERTAINTY_MEASURE_WITH_UNIT (LENGTH_MEASURE( 1.000000000000000082E-05 ), #292, 'distance_accuracy_value', 'NONE');
#158 = ORIENTED_EDGE ( 'NONE', *, *, #721, .T. ) ;
#159 = CARTESIAN_POINT ( 'NONE',  ( 0.000000000000000000, 100.0000000000000000, -5.000000000000001776 ) ) ;
#160 = CONICAL_SURFACE ( 'NONE', #856, 15.00000000000001066, 0.7853981633974517207 ) ;
#161 = EDGE_CURVE ( 'NONE', #823, #168, #915, .T. ) ;
#162 = CARTESIAN_POINT ( 'NONE',  ( 0.000000000000000000, 20.00000000000000355, 0.000000000000000000 ) ) ;
#163 = ORIENTED_EDGE ( 'NONE', *, *, #332, .F. ) ;
#164 = DIRECTION ( 'NONE',  ( -0.000000000000000000, -0.000000000000000000, -1.000000000000000000 ) ) ;
#165 = AXIS2_PLACEMENT_3D ( 'NONE', #577, #411, #497 ) ;
#166 = CARTESIAN_POINT ( 'NONE',  ( -10.00000000000000000, 100.0000000000000000, 7.499999999999973355 ) ) ;
#167 = CARTESIAN_POINT ( 'NONE',  ( 0.000000000000000000, 100.0000000000000000, 5.000000000000001776 ) ) ;
#168 = VERTEX_POINT ( 'NONE', #96 ) ;
#169 = DIRECTION ( 'NONE',  ( -1.000000000000000000, 0.000000000000000000, 0.000000000000000000 ) ) ;
#170 = CARTESIAN_POINT ( 'NONE',  ( -30.06246594793229931, 20.20345818795584236, -8.558731347024439273 ) ) ;
#171 = CARTESIAN_POINT ( 'NONE',  ( 23.58106582802264839, 23.16725865627898884, -5.344110805310178236 ) ) ;
#172 = EDGE_CURVE ( 'NONE', #785, #679, #750, .T. ) ;
#173 = ORIENTED_EDGE ( 'NONE', *, *, #538, .T. ) ;
#174 = AXIS2_PLACEMENT_3D ( 'NONE', #919, #39, #1019 ) ;
#175 = DIRECTION ( 'NONE',  ( 1.000000000000000000, 0.000000000000000000, 0.000000000000000000 ) ) ;
#176 = CARTESIAN_POINT ( 'NONE',  ( -32.42282258091861280, 21.40286451684158209, -6.513235439012053263 ) ) ;
#177 = LINE ( 'NONE', #30, #635 ) ;
#178 = EDGE_LOOP ( 'NONE', ( #770, #617, #735, #550, #432, #922 ) ) ;
#179 = AXIS2_PLACEMENT_3D ( 'NONE', #146, #579, #965 ) ;
#180 = AXIS2_PLACEMENT_3D ( 'NONE', #502, #567, #406 ) ;
#181 = DIRECTION ( 'NONE',  ( -1.000000000000000000, 0.000000000000000000, 0.000000000000000000 ) ) ;
#182 = ORIENTED_EDGE ( 'NONE', *, *, #683, .F. ) ;
#183 = CARTESIAN_POINT ( 'NONE',  ( -33.46418201802828918, 22.44018896886840508, -5.701530990762473827 ) ) ;
#184 = CARTESIAN_POINT ( 'NONE',  ( 194.6183915816770877, 87.80649114647422948, 5.000000000000001776 ) ) ;
#185 = ORIENTED_EDGE ( 'NONE', *, *, #1049, .F. ) ;
#186 = EDGE_CURVE ( 'NONE', #775, #515, #1050, .T. ) ;
#187 = CARTESIAN_POINT ( 'NONE',  ( 12.49999999999988098, 100.0000000000000000, -5.000000000000001776 ) ) ;
#188 = CARTESIAN_POINT ( 'NONE',  ( 0.000000000000000000, 100.0000000000000000, 5.000000000000001776 ) ) ;
#189 = FACE_OUTER_BOUND ( 'NONE', #593, .T. ) ;
#190 = CARTESIAN_POINT ( 'NONE',  ( 22.59056938982216778, 20.93704677328296171, 7.067272693468981792 ) ) ;
#191 = VERTEX_POINT ( 'NONE', #445 ) ;
#192 = EDGE_CURVE ( 'NONE', #785, #199, #340, .T. ) ;
#193 = APPROVAL ( #533, 'UNSPECIFIED' ) ;
#194 = FACE_OUTER_BOUND ( 'NONE', #556, .T. ) ;
#195 = DIRECTION ( 'NONE',  ( -0.000000000000000000, -0.000000000000000000, -1.000000000000000000 ) ) ;
#196 = DIRECTION ( 'NONE',  ( -0.000000000000000000, -0.000000000000000000, -1.000000000000000000 ) ) ;
#197 = AXIS2_PLACEMENT_3D ( 'NONE', #124, #467, #899 ) ;
#198 = FACE_OUTER_BOUND ( 'NONE', #751, .T. ) ;
#199 = VERTEX_POINT ( 'NONE', #773 ) ;
#200 = PERSON_AND_ORGANIZATION ( #939, #975 ) ;
#201 = CIRCLE ( 'NONE', #642, 70.00000000000000000 ) ;
#202 = DIRECTION ( 'NONE',  ( 1.000000000000000000, 0.000000000000000000, 0.000000000000000000 ) ) ;
#203 = AXIS2_PLACEMENT_3D ( 'NONE', #381, #870, #472 ) ;
#204 = DIRECTION ( 'NONE',  ( -0.000000000000000000, -0.000000000000000000, -1.000000000000000000 ) ) ;
#205 = VERTEX_POINT ( 'NONE', #909 ) ;
#206 = CARTESIAN_POINT ( 'NONE',  ( 194.6183915816770877, 87.80649114647422948, -5.000000000000001776 ) ) ;
#207 = APPROVAL_ROLE ( '' ) ;
#208 = FACE_OUTER_BOUND ( 'NONE', #521, .T. ) ;
#209 = FACE_BOUND ( 'NONE', #662, .T. ) ;
#210 = AXIS2_PLACEMENT_3D ( 'NONE', #890, #728, #322 ) ;
#211 = EDGE_CURVE ( 'NONE', #490, #881, #177, .T. ) ;
#212 = VERTEX_POINT ( 'NONE', #762 ) ;
#213 = CARTESIAN_POINT ( 'NONE',  ( 12.47553792190228172, 99.21836481708167810, -5.000000000000001776 ) ) ;
#214 = AXIS2_PLACEMENT_3D ( 'NONE', #443, #846, #202 ) ;
#215 = ORIENTED_EDGE ( 'NONE', *, *, #821, .F. ) ;
#216 = APPROVAL_ROLE ( '' ) ;
#217 = CARTESIAN_POINT ( 'NONE',  ( -31.95637634460826604, 20.00000000000000355, -6.667826932629417058 ) ) ;
#218 = TOROIDAL_SURFACE ( 'NONE', #28, 70.00000000000000000, 5.000000000000000000 ) ;
#219 = EDGE_LOOP ( 'NONE', ( #1010, #548, #259, #964 ) ) ;
#220 = ADVANCED_FACE ( 'NONE', ( #334 ), #348, .T. ) ;
#221 = CARTESIAN_POINT ( 'NONE',  ( 61.47880809800906832, 25.00000000000000355, 5.000000000000001776 ) ) ;
#222 = DIRECTION ( 'NONE',  ( 0.000000000000000000, 0.000000000000000000, 1.000000000000000000 ) ) ;
#223 = ORIENTED_EDGE ( 'NONE', *, *, #932, .F. ) ;
#224 = DIRECTION ( 'NONE',  ( -1.000000000000000000, 0.000000000000000000, 0.000000000000000000 ) ) ;
#225 = ORIENTED_EDGE ( 'NONE', *, *, #419, .F. ) ;
#226 = LINE ( 'NONE', #576, #1052 ) ;
#227 = COORDINATED_UNIVERSAL_TIME_OFFSET ( 5, 30, .AHEAD. ) ;
#228 = CYLINDRICAL_SURFACE ( 'NONE', #165, 99.99999999999998579 ) ;
#229 = VECTOR ( 'NONE', #931, 1000.000000000000000 ) ;
#230 = ORIENTED_EDGE ( 'NONE', *, *, #786, .F. ) ;
#231 = CARTESIAN_POINT ( 'NONE',  ( 12.47553792190245403, 99.21836481708166389, 5.000000000000001776 ) ) ;
#232 = AXIS2_PLACEMENT_3D ( 'NONE', #206, #464, #562 ) ;
#233 = DIRECTION ( 'NONE',  ( -0.000000000000000000, -0.000000000000000000, -1.000000000000000000 ) ) ;
#234 = VERTEX_POINT ( 'NONE', #898 ) ;
#235 = CARTESIAN_POINT ( 'NONE',  ( 23.38935195557419888, 20.00000000000001421, -6.664764279141682124 ) ) ;
#236 = ADVANCED_FACE ( 'NONE', ( #592 ), #908, .T. ) ;
#237 = APPROVAL_DATE_TIME ( #758, #193 ) ;
#238 = APPLICATION_CONTEXT ( 'configuration controlled 3d designs of mechanical parts and assemblies' ) ;
#239 = LINE ( 'NONE', #808, #247 ) ;
#240 = ORIENTED_EDGE ( 'NONE', *, *, #301, .T. ) ;
#241 = DIRECTION ( 'NONE',  ( 0.000000000000000000, 0.000000000000000000, 1.000000000000000000 ) ) ;
#242 = ORIENTED_EDGE ( 'NONE', *, *, #1041, .T. ) ;
#243 = AXIS2_PLACEMENT_3D ( 'NONE', #1007, #279, #937 ) ;
#244 = CARTESIAN_POINT ( 'NONE',  ( 8.878689293818312441E-15, 20.00000000000000355, -70.00000000000000000 ) ) ;
#245 = B_SPLINE_CURVE_WITH_KNOTS ( 'NONE', 3,
 ( #865, #375, #710, #942, #74, #412, #296, #739, #756, #671, #269, #518, #509, #531, #526, #609, #171, #514, #16, #257, #425, #826, #990, #986 ),
 .UNSPECIFIED., .F., .F.,
 ( 4, 2, 2, 2, 2, 2, 2, 2, 2, 2, 2, 4 ),
 ( 0.000000000000000000, 0.002276485038356626869, 0.003414727557534945074, 0.003983848817124108731, 0.004552970076713271953, 0.005691212595891601868, 0.006260333855480766825, 0.006829455115069930915, 0.007398576374659095872, 0.007967697634248260830, 0.008536818893837425787, 0.009105940153426590744 ),
 .UNSPECIFIED. ) ;
#246 = FACE_OUTER_BOUND ( 'NONE', #77, .T. ) ;
#247 = VECTOR ( 'NONE', #978, 1000.000000000000114 ) ;
#248 = ORIENTED_EDGE ( 'NONE', *, *, #963, .F. ) ;
#249 = PLANE ( 'NONE',  #882 ) ;
#250 = EDGE_CURVE ( 'NONE', #234, #402, #701, .T. ) ;
#251 = CARTESIAN_POINT ( 'NONE',  ( 9.184850993605150311E-15, 15.00000000000000355, -75.00000000000001421 ) ) ;
#252 = DIRECTION ( 'NONE',  ( 0.5114362600631617850, -0.4882959675162281687, -0.7071067811865450192 ) ) ;
#253 = ORIENTED_EDGE ( 'NONE', *, *, #90, .F. ) ;
#254 = DIRECTION ( 'NONE',  ( -0.000000000000000000, -0.000000000000000000, -1.000000000000000000 ) ) ;
#255 = EDGE_CURVE ( 'NONE', #705, #505, #260, .T. ) ;
#256 = DIRECTION ( 'NONE',  ( 0.000000000000000000, 1.000000000000000000, 0.000000000000000000 ) ) ;
#257 = CARTESIAN_POINT ( 'NONE',  ( 23.51908745572611892, 24.07868847518724564, -5.081958829854026582 ) ) ;
#258 = LOCAL_TIME ( 12, 4, 35.00000000000000000, #303 ) ;
#259 = ORIENTED_EDGE ( 'NONE', *, *, #508, .T. ) ;
#260 = CIRCLE ( 'NONE', #734, 10.00000000000000000 ) ;
#261 = CARTESIAN_POINT ( 'NONE',  ( 0.000000000000000000, 100.0000000000000000, 4.999999999999998224 ) ) ;
#262 = CARTESIAN_POINT ( 'NONE',  ( 194.6183915816770877, 87.80649114647422948, 5.000000000000001776 ) ) ;
#263 = DIRECTION ( 'NONE',  ( -0.000000000000000000, -1.000000000000000000, -0.000000000000000000 ) ) ;
#264 = ADVANCED_FACE ( 'NONE', ( #366 ), #160, .T. ) ;
#265 = ORIENTED_EDGE ( 'NONE', *, *, #211, .T. ) ;
#266 = DIRECTION ( 'NONE',  ( 0.000000000000000000, -0.000000000000000000, 1.000000000000000000 ) ) ;
#267 = DIRECTION ( 'NONE',  ( 0.7071067811865500152, 0.000000000000000000, 0.7071067811865451302 ) ) ;
#268 = CARTESIAN_POINT ( 'NONE',  ( -33.08948434008871686, 22.01554350990012665, -5.985033588967825224 ) ) ;
#269 = CARTESIAN_POINT ( 'NONE',  ( 23.13823003414842461, 21.59872555631382340, -6.317485062782793648 ) ) ;
#270 = ADVANCED_FACE ( 'NONE', ( #198 ), #546, .T. ) ;
#271 = VERTEX_POINT ( 'NONE', #880 ) ;
#272 = FACE_OUTER_BOUND ( 'NONE', #295, .T. ) ;
#273 = CARTESIAN_POINT ( 'NONE',  ( 15.00000000000001066, 100.0000000000000000, -2.499999999999888534 ) ) ;
#274 = DIRECTION ( 'NONE',  ( -0.000000000000000000, -0.000000000000000000, 1.000000000000000000 ) ) ;
#275 = CARTESIAN_POINT ( 'NONE',  ( 21.91620763377241943, 20.46821529048784782, 7.865813934325151635 ) ) ;
#276 = VERTEX_POINT ( 'NONE', #63 ) ;
#277 = DATE_TIME_ROLE ( 'creation_date' ) ;
#278 = EDGE_CURVE ( 'NONE', #679, #730, #961, .T. ) ;
#279 = DIRECTION ( 'NONE',  ( -1.000000000000000000, 0.000000000000000000, 0.000000000000000000 ) ) ;
#280 = DIRECTION ( 'NONE',  ( -1.000000000000000000, 0.000000000000000000, 0.000000000000000000 ) ) ;
#281 = AXIS2_PLACEMENT_3D ( 'NONE', #184, #831, #88 ) ;
#282 = ORIENTED_EDGE ( 'NONE', *, *, #676, .F. ) ;
#283 = AXIS2_PLACEMENT_3D ( 'NONE', #506, #1054, #570 ) ;
#284 = CIRCLE ( 'NONE', #283, 10.00000000000000000 ) ;
#285 = DATE_AND_TIME ( #1011, #992 ) ;
#286 = ORIENTED_EDGE ( 'NONE', *, *, #154, .F. ) ;
#287 = AXIS2_PLACEMENT_3D ( 'NONE', #610, #222, #637 ) ;
#288 = PLANE ( 'NONE',  #816 ) ;
#289 = EDGE_CURVE ( 'NONE', #510, #291, #329, .T. ) ;
#290 = CIRCLE ( 'NONE', #95, 5.000000000000004441 ) ;
#291 = VERTEX_POINT ( 'NONE', #326 ) ;
#292 =( LENGTH_UNIT ( ) NAMED_UNIT ( * ) SI_UNIT ( .MILLI., .METRE. ) );
#293 = DIRECTION ( 'NONE',  ( 0.000000000000000000, 0.000000000000000000, -1.000000000000000000 ) ) ;
#294 = LINE ( 'NONE', #50, #336 ) ;
#295 = EDGE_LOOP ( 'NONE', ( #337, #911, #439, #872 ) ) ;
#296 = CARTESIAN_POINT ( 'NONE',  ( 22.36921130496346066, 20.76610029747217823, -7.335581488173297693 ) ) ;
#297 = COORDINATED_UNIVERSAL_TIME_OFFSET ( 5, 30, .AHEAD. ) ;
#298 = CARTESIAN_POINT ( 'NONE',  ( -35.37261447524434033, 20.00000000000000000, -3.333593532052957276 ) ) ;
#299 = AXIS2_PLACEMENT_3D ( 'NONE', #102, #362, #1009 ) ;
#300 = ORIENTED_EDGE ( 'NONE', *, *, #508, .F. ) ;
#301 = EDGE_CURVE ( 'NONE', #881, #717, #714, .T. ) ;
#302 = B_SPLINE_CURVE_WITH_KNOTS ( 'NONE', 3,
 ( #886, #397, #235, #71, #491, #801, #742 ),
 .UNSPECIFIED., .F., .F.,
 ( 4, 3, 4 ),
 ( -0.007340342220739513174, -1.734723475976807094E-18, 0.003676563860152201949 ),
 .UNSPECIFIED. ) ;
#303 = COORDINATED_UNIVERSAL_TIME_OFFSET ( 5, 30, .AHEAD. ) ;
#304 = DIRECTION ( 'NONE',  ( -0.000000000000000000, -0.000000000000000000, -1.000000000000000000 ) ) ;
#305 = AXIS2_PLACEMENT_3D ( 'NONE', #943, #131, #1020 ) ;
#306 = AXIS2_PLACEMENT_3D ( 'NONE', #639, #481, #122 ) ;
#307 = ORIENTED_EDGE ( 'NONE', *, *, #319, .F. ) ;
#308 = EDGE_CURVE ( 'NONE', #1017, #400, #226, .T. ) ;
#309 = LINE ( 'NONE', #1042, #519 ) ;
#310 = EDGE_LOOP ( 'NONE', ( #253, #480, #316, #391 ) ) ;
#311 = CARTESIAN_POINT ( 'NONE',  ( -28.53474004478982096, 20.00000000000000355, 10.00000000000000178 ) ) ;
#312 = CARTESIAN_POINT ( 'NONE',  ( -36.22579184107235761, 20.00000000000000355, -2.499999999999886757 ) ) ;
#313 = EDGE_CURVE ( 'NONE', #402, #205, #302, .T. ) ;
#314 = VECTOR ( 'NONE', #779, 1000.000000000000000 ) ;
#315 = B_SPLINE_CURVE_WITH_KNOTS ( 'NONE', 3,
 ( #605, #918, #26, #853, #380, #789, #38 ),
 .UNSPECIFIED., .F., .F.,
 ( 4, 3, 4 ),
 ( -0.007164125110661526304, 0.000000000000000000, 0.003578422578200607558 ),
 .UNSPECIFIED. ) ;
#316 = ORIENTED_EDGE ( 'NONE', *, *, #161, .F. ) ;
#317 = DIRECTION ( 'NONE',  ( 0.000000000000000000, 0.000000000000000000, -1.000000000000000000 ) ) ;
#318 = DIRECTION ( 'NONE',  ( -0.000000000000000000, -0.000000000000000000, -1.000000000000000000 ) ) ;
#319 = EDGE_CURVE ( 'NONE', #1000, #581, #410, .T. ) ;
#320 = AXIS2_PLACEMENT_3D ( 'NONE', #393, #4, #13 ) ;
#321 = ORIENTED_EDGE ( 'NONE', *, *, #503, .T. ) ;
#322 = DIRECTION ( 'NONE',  ( -1.000000000000000000, 0.000000000000000000, 0.000000000000000000 ) ) ;
#323 = EDGE_CURVE ( 'NONE', #400, #879, #284, .T. ) ;
#324 = DIRECTION ( 'NONE',  ( -1.000000000000000000, 0.000000000000000000, 0.000000000000000000 ) ) ;
#325 = ORIENTED_EDGE ( 'NONE', *, *, #369, .F. ) ;
#326 = CARTESIAN_POINT ( 'NONE',  ( 12.11839158167696340, 87.80649114647422948, -5.000000000000001776 ) ) ;
#327 = DIRECTION ( 'NONE',  ( 0.000000000000000000, 0.000000000000000000, 1.000000000000000000 ) ) ;
#328 = CARTESIAN_POINT ( 'NONE',  ( -5.000000000000001776, 100.0000000000000000, 4.999999999999998224 ) ) ;
#329 = LINE ( 'NONE', #582, #1029 ) ;
#330 = EDGE_LOOP ( 'NONE', ( #1024, #89, #414, #620 ) ) ;
#331 = AXIS2_PLACEMENT_3D ( 'NONE', #777, #924, #1002 ) ;
#332 = EDGE_CURVE ( 'NONE', #515, #775, #47, .T. ) ;
#333 = CARTESIAN_POINT ( 'NONE',  ( 14.61839158167707531, 87.80649114647422948, 5.000000000000001776 ) ) ;
#334 = FACE_OUTER_BOUND ( 'NONE', #447, .T. ) ;
#335 = EDGE_CURVE ( 'NONE', #276, #881, #864, .T. ) ;
#336 = VECTOR ( 'NONE', #468, 1000.000000000000114 ) ;
#337 = ORIENTED_EDGE ( 'NONE', *, *, #140, .F. ) ;
#338 = CONICAL_SURFACE ( 'NONE', #454, 180.0000000000000284, 0.7853981633974482790 ) ;
#339 = ADVANCED_FACE ( 'NONE', ( #1044 ), #501, .T. ) ;
#340 = B_SPLINE_CURVE_WITH_KNOTS ( 'NONE', 3,
 ( #843, #23, #749, #10, #83, #430, #996, #356, #838, #696, #678, #190, #343, #275, #6, #437, #681, #596, #108, #451 ),
 .UNSPECIFIED., .F., .F.,
 ( 4, 2, 2, 2, 2, 2, 2, 2, 2, 4 ),
 ( 3.469446951953614189E-18, 0.001142502816637997343, 0.002285005633275991217, 0.002856257041594984468, 0.003427508449913976851, 0.004570011266551959016, 0.005712514083189942048, 0.006855016899827925080, 0.007997519716465908979, 0.009140022533103892011 ),
 .UNSPECIFIED. ) ;
#341 = CARTESIAN_POINT ( 'NONE',  ( 0.000000000000000000, 15.00000000000000355, 0.000000000000000000 ) ) ;
#342 = DIRECTION ( 'NONE',  ( 1.224646799147352468E-16, 0.000000000000000000, -1.000000000000000000 ) ) ;
#343 = CARTESIAN_POINT ( 'NONE',  ( 22.37346175121287928, 20.75911933760478689, 7.334150412417974607 ) ) ;
#344 = EDGE_LOOP ( 'NONE', ( #286, #357, #747, #452 ) ) ;
#345 = CARTESIAN_POINT ( 'NONE',  ( 23.38935195557445113, 20.00000000000000355, 6.664764279141670578 ) ) ;
#346 = EDGE_CURVE ( 'NONE', #212, #527, #822, .T. ) ;
#347 = CARTESIAN_POINT ( 'NONE',  ( -28.53474004479950565, 20.00000000000000355, -10.00000000000000178 ) ) ;
#348 = CYLINDRICAL_SURFACE ( 'NONE', #299, 10.00000000000000000 ) ;
#349 = B_SPLINE_CURVE_WITH_KNOTS ( 'NONE', 3,
 ( #525, #361, #830, #1008, #87, #601, #595, #907, #183, #15, #268, #615, #176, #436, #925, #778, #535, #170, #355, #513, #687, #347 ),
 .UNSPECIFIED., .F., .F.,
 ( 4, 2, 2, 2, 2, 2, 2, 2, 2, 2, 4 ),
 ( 0.000000000000000000, 0.001258404028109923753, 0.001887606042164889425, 0.002516808056219855313, 0.003146010070274820984, 0.003775212084329786656, 0.005033616112439725371, 0.006292020140549648907, 0.007550424168659565505, 0.008808828196769482102, 0.01006723222487939870 ),
 .UNSPECIFIED. ) ;
#350 = CONICAL_SURFACE ( 'NONE', #861, 15.00000000000001066, 0.7853981633974517207 ) ;
#351 = ORIENTED_EDGE ( 'NONE', *, *, #31, .F. ) ;
#352 = CIRCLE ( 'NONE', #946, 5.000000000000001776 ) ;
#353 = PLANE ( 'NONE',  #19 ) ;
#354 = CYLINDRICAL_SURFACE ( 'NONE', #434, 10.00000000000000000 ) ;
#355 = CARTESIAN_POINT ( 'NONE',  ( -29.75624663262139435, 20.12771570615909766, -8.839938904303297207 ) ) ;
#356 = CARTESIAN_POINT ( 'NONE',  ( 23.39452692142815948, 22.17178622479292827, 5.872597493330464324 ) ) ;
#357 = ORIENTED_EDGE ( 'NONE', *, *, #250, .F. ) ;
#358 = VECTOR ( 'NONE', #787, 1000.000000000000000 ) ;
#359 = DIRECTION ( 'NONE',  ( 0.000000000000000000, 0.000000000000000000, -1.000000000000000000 ) ) ;
#360 = FACE_OUTER_BOUND ( 'NONE', #894, .T. ) ;
#361 = CARTESIAN_POINT ( 'NONE',  ( -34.57704422052665905, 24.57842834317373359, -5.000000000000001776 ) ) ;
#362 = DIRECTION ( 'NONE',  ( -0.000000000000000000, -0.000000000000000000, -1.000000000000000000 ) ) ;
#363 = VERTEX_POINT ( 'NONE', #974 ) ;
#364 = DIRECTION ( 'NONE',  ( -1.000000000000000000, 0.000000000000000000, 0.000000000000000000 ) ) ;
#365 = FACE_OUTER_BOUND ( 'NONE', #1053, .T. ) ;
#366 = FACE_OUTER_BOUND ( 'NONE', #32, .T. ) ;
#367 = ORIENTED_EDGE ( 'NONE', *, *, #537, .T. ) ;
#368 = PRODUCT_DEFINITION_FORMATION_WITH_SPECIFIED_SOURCE ( 'ANY', '', #763, .NOT_KNOWN. ) ;
#369 = EDGE_CURVE ( 'NONE', #928, #702, #968, .T. ) ;
#370 = DIRECTION ( 'NONE',  ( 0.000000000000000000, 0.000000000000000000, 1.000000000000000000 ) ) ;
#371 = CARTESIAN_POINT ( 'NONE',  ( -34.51918955226206975, 20.00000000000000355, -4.166933778767965890 ) ) ;
#372 = ORIENTED_EDGE ( 'NONE', *, *, #192, .F. ) ;
#373 = PERSON_AND_ORGANIZATION_ROLE ( 'design_supplier' ) ;
#374 = CIRCLE ( 'NONE', #1003, 12.49999999999987921 ) ;
#375 = CARTESIAN_POINT ( 'NONE',  ( 20.36835830559484251, 20.00000000000000355, -9.477948789051579226 ) ) ;
#376 = AXIS2_PLACEMENT_3D ( 'NONE', #608, #680, #920 ) ;
#377 = CARTESIAN_POINT ( 'NONE',  ( -7.499999999999978684, 100.0000000000000000, 10.00000000000000178 ) ) ;
#378 = ORIENTED_EDGE ( 'NONE', *, *, #752, .T. ) ;
#379 = DIRECTION ( 'NONE',  ( -1.000000000000000000, 0.000000000000000000, -0.000000000000000000 ) ) ;
#380 = CARTESIAN_POINT ( 'NONE',  ( -34.51918955226218344, 20.00000000000000355, 4.166933778768018293 ) ) ;
#381 = CARTESIAN_POINT ( 'NONE',  ( 194.6183915816770877, 87.80649114647422948, -2.499999999999888534 ) ) ;
#382 = DIRECTION ( 'NONE',  ( 0.000000000000000000, 1.000000000000000000, 0.000000000000000000 ) ) ;
#383 = ADVANCED_FACE ( 'NONE', ( #746 ), #338, .F. ) ;
#384 = EDGE_LOOP ( 'NONE', ( #469, #325 ) ) ;
#385 = CARTESIAN_POINT ( 'NONE',  ( 19.80840972021939805, 20.00000000000000355, -10.00000000000000178 ) ) ;
#386 = VECTOR ( 'NONE', #82, 1000.000000000000000 ) ;
#387 = PERSON_AND_ORGANIZATION ( #939, #975 ) ;
#388 = CYLINDRICAL_SURFACE ( 'NONE', #61, 99.99999999999998579 ) ;
#389 = VECTOR ( 'NONE', #267, 1000.000000000000114 ) ;
#390 = CC_DESIGN_PERSON_AND_ORGANIZATION_ASSIGNMENT ( #1018, #936, ( #763 ) ) ;
#391 = ORIENTED_EDGE ( 'NONE', *, *, #998, .F. ) ;
#392 = DIRECTION ( 'NONE',  ( -1.000000000000000000, 0.000000000000000000, 0.000000000000000000 ) ) ;
#393 = CARTESIAN_POINT ( 'NONE',  ( 0.000000000000000000, 100.0000000000000000, 10.00000000000000178 ) ) ;
#394 = CIRCLE ( 'NONE', #706, 97.49999999999985789 ) ;
#395 = CIRCLE ( 'NONE', #287, 7.499999999999978684 ) ;
#396 = ORIENTED_EDGE ( 'NONE', *, *, #910, .F. ) ;
#397 = CARTESIAN_POINT ( 'NONE',  ( 21.59804535753418264, 20.00000000000000355, -8.331487075746048632 ) ) ;
#398 = ADVANCED_FACE ( 'NONE', ( #557 ), #54, .T. ) ;
#399 = CARTESIAN_POINT ( 'NONE',  ( -36.22579184107235761, 20.00000000000000355, 5.000000000000001776 ) ) ;
#400 = VERTEX_POINT ( 'NONE', #128 ) ;
#401 = CARTESIAN_POINT ( 'NONE',  ( -29.14215047783989476, 20.00000000000000355, 9.408917099915772297 ) ) ;
#402 = VERTEX_POINT ( 'NONE', #385 ) ;
#403 = APPROVAL ( #947, 'UNSPECIFIED' ) ;
#404 = EDGE_CURVE ( 'NONE', #205, #571, #470, .T. ) ;
#405 = SECURITY_CLASSIFICATION ( '', '', #33 ) ;
#406 = DIRECTION ( 'NONE',  ( -1.000000000000000000, 1.779203565104416734E-15, 0.000000000000000000 ) ) ;
#407 = CIRCLE ( 'NONE', #483, 7.499999999999978684 ) ;
#408 = ORIENTED_EDGE ( 'NONE', *, *, #849, .T. ) ;
#409 = DIRECTION ( 'NONE',  ( 0.7057229970821656817, -0.04421596306044372343, -0.7071067811865496822 ) ) ;
#410 = CIRCLE ( 'NONE', #999, 12.49999999999987921 ) ;
#411 = DIRECTION ( 'NONE',  ( -0.000000000000000000, -0.000000000000000000, -1.000000000000000000 ) ) ;
#412 = CARTESIAN_POINT ( 'NONE',  ( 22.25856717747561930, 20.68598332719545851, -7.467756511761944438 ) ) ;
#413 = CIRCLE ( 'NONE', #850, 12.50000000000007816 ) ;
#414 = ORIENTED_EDGE ( 'NONE', *, *, #14, .T. ) ;
#415 = DIRECTION ( 'NONE',  ( -1.000000000000000000, 0.000000000000000000, 0.000000000000000000 ) ) ;
#416 = ORIENTED_EDGE ( 'NONE', *, *, #932, .T. ) ;
#417 = CARTESIAN_POINT ( 'NONE',  ( -10.84920142906043417, 110.3583216957030828, -2.499999999999886757 ) ) ;
#418 = ORIENTED_EDGE ( 'NONE', *, *, #335, .T. ) ;
#419 = EDGE_CURVE ( 'NONE', #581, #291, #1022, .T. ) ;
#420 = DIRECTION ( 'NONE',  ( 0.000000000000000000, 1.000000000000000000, 0.000000000000000000 ) ) ;
#421 = ORIENTED_EDGE ( 'NONE', *, *, #590, .T. ) ;
#422 = FACE_BOUND ( 'NONE', #500, .T. ) ;
#423 = ADVANCED_FACE ( 'NONE', ( #873 ), #707, .T. ) ;
#424 = AXIS2_PLACEMENT_3D ( 'NONE', #129, #868, #118 ) ;
#425 = CARTESIAN_POINT ( 'NONE',  ( 23.48263257662017622, 24.26675944642913407, -5.050567371596091704 ) ) ;
#426 = ADVANCED_BREP_SHAPE_REPRESENTATION ( 'Part_0_LINK_0_Default_sldprt', ( #150, #424 ), #138 ) ;
#427 = ORIENTED_EDGE ( 'NONE', *, *, #626, .F. ) ;
#428 = CARTESIAN_POINT ( 'NONE',  ( 5.000000000000001776, 100.0000000000000000, -5.000000000000001776 ) ) ;
#429 = DIRECTION ( 'NONE',  ( 0.000000000000000000, 1.000000000000000000, 0.000000000000000000 ) ) ;
#430 = CARTESIAN_POINT ( 'NONE',  ( 23.52232510104250451, 22.65015523040789347, 5.582464857716920470 ) ) ;
#431 = CIRCLE ( 'NONE', #111, 75.00000000000001421 ) ;
#432 = ORIENTED_EDGE ( 'NONE', *, *, #733, .T. ) ;
#433 = VECTOR ( 'NONE', #953, 1000.000000000000000 ) ;
#434 = AXIS2_PLACEMENT_3D ( 'NONE', #686, #195, #449 ) ;
#435 = CARTESIAN_POINT ( 'NONE',  ( 7.499999999999978684, 100.0000000000000000, 10.00000000000000178 ) ) ;
#436 = CARTESIAN_POINT ( 'NONE',  ( -31.85201046013096970, 20.99814262933409736, -6.986356296307439706 ) ) ;
#437 = CARTESIAN_POINT ( 'NONE',  ( 21.16709438460237536, 20.17133493257290056, 8.671605778962456768 ) ) ;
#438 = AXIS2_PLACEMENT_3D ( 'NONE', #68, #659, #3 ) ;
#439 = ORIENTED_EDGE ( 'NONE', *, *, #977, .T. ) ;
#440 = PRODUCT_DEFINITION_SHAPE ( 'NONE', 'NONE',  #630 ) ;
#441 = CARTESIAN_POINT ( 'NONE',  ( 21.59804535753446331, 20.00000000000000355, 8.331487075746029092 ) ) ;
#442 = ADVANCED_FACE ( 'NONE', ( #547 ), #672, .T. ) ;
#443 = CARTESIAN_POINT ( 'NONE',  ( 0.000000000000000000, 100.0000000000000000, 7.499999999999973355 ) ) ;
#444 = CARTESIAN_POINT ( 'NONE',  ( -10.00000000000000000, 100.0000000000000000, 5.000000000000001776 ) ) ;
#445 = CARTESIAN_POINT ( 'NONE',  ( -34.64854121788241059, 25.00000000000000355, -5.000000000000001776 ) ) ;
#446 = AXIS2_PLACEMENT_3D ( 'NONE', #988, #9, #594 ) ;
#447 = EDGE_LOOP ( 'NONE', ( #673, #805, #684, #58 ) ) ;
#448 = LINE ( 'NONE', #98, #48 ) ;
#449 = DIRECTION ( 'NONE',  ( -1.000000000000000000, 0.000000000000000000, 0.000000000000000000 ) ) ;
#450 = DIRECTION ( 'NONE',  ( -1.000000000000000000, 0.000000000000000000, 0.000000000000000000 ) ) ;
#451 = CARTESIAN_POINT ( 'NONE',  ( 19.80840972021970003, 20.00000000000000355, 10.00000000000000178 ) ) ;
#452 = ORIENTED_EDGE ( 'NONE', *, *, #1033, .F. ) ;
#453 = CIRCLE ( 'NONE', #78, 15.00000000000001066 ) ;
#454 = AXIS2_PLACEMENT_3D ( 'NONE', #980, #477, #392 ) ;
#455 = ORIENTED_EDGE ( 'NONE', *, *, #887, .F. ) ;
#456 = CARTESIAN_POINT ( 'NONE',  ( 194.6183915816770877, 87.80649114647422948, 5.000000000000001776 ) ) ;
#457 = DIRECTION ( 'NONE',  ( 1.000000000000000000, 0.000000000000000000, 0.000000000000000000 ) ) ;
#458 = EDGE_CURVE ( 'NONE', #1017, #271, #395, .T. ) ;
#459 = ORIENTED_EDGE ( 'NONE', *, *, #869, .F. ) ;
#460 = CARTESIAN_POINT ( 'NONE',  ( 61.47880809800906832, 41.30284372434919504, 5.000000000000001776 ) ) ;
#461 = DIRECTION ( 'NONE',  ( -0.000000000000000000, -0.000000000000000000, 1.000000000000000000 ) ) ;
#462 = EDGE_CURVE ( 'NONE', #205, #510, #934, .T. ) ;
#463 = ORIENTED_EDGE ( 'NONE', *, *, #313, .F. ) ;
#464 = DIRECTION ( 'NONE',  ( 0.000000000000000000, 0.000000000000000000, 1.000000000000000000 ) ) ;
#465 = DATE_AND_TIME ( #634, #18 ) ;
#466 = CIRCLE ( 'NONE', #331, 15.00000000000001066 ) ;
#467 = DIRECTION ( 'NONE',  ( -0.000000000000000000, -0.000000000000000000, 1.000000000000000000 ) ) ;
#468 = DIRECTION ( 'NONE',  ( -0.5114362600631581213, 0.4882959675162247826, -0.7071067811865501263 ) ) ;
#469 = ORIENTED_EDGE ( 'NONE', *, *, #794, .F. ) ;
#470 = LINE ( 'NONE', #722, #433 ) ;
#471 = PERSON_AND_ORGANIZATION ( #939, #975 ) ;
#472 = DIRECTION ( 'NONE',  ( -1.000000000000000000, 0.000000000000000000, 0.000000000000000000 ) ) ;
#473 = EDGE_CURVE ( 'NONE', #490, #527, #851, .T. ) ;
#474 = AXIS2_PLACEMENT_3D ( 'NONE', #938, #799, #125 ) ;
#475 = CARTESIAN_POINT ( 'NONE',  ( -10.84920142906043417, 110.3583216957030828, 2.500000000000055511 ) ) ;
#476 = EDGE_LOOP ( 'NONE', ( #876, #455, #421, #833 ) ) ;
#477 = DIRECTION ( 'NONE',  ( 0.000000000000000000, 0.000000000000000000, -1.000000000000000000 ) ) ;
#478 = PERSON_AND_ORGANIZATION_ROLE ( 'creator' ) ;
#479 = CARTESIAN_POINT ( 'NONE',  ( 0.000000000000000000, 100.0000000000000000, -5.000000000000001776 ) ) ;
#480 = ORIENTED_EDGE ( 'NONE', *, *, #733, .F. ) ;
#481 = DIRECTION ( 'NONE',  ( -0.000000000000000000, -0.000000000000000000, -1.000000000000000000 ) ) ;
#482 = PLANE ( 'NONE',  #474 ) ;
#483 = AXIS2_PLACEMENT_3D ( 'NONE', #836, #99, #21 ) ;
#484 = ADVANCED_FACE ( 'NONE', ( #591 ), #489, .T. ) ;
#485 = EDGE_LOOP ( 'NONE', ( #136, #935, #225, #973 ) ) ;
#486 = DIRECTION ( 'NONE',  ( 0.000000000000000000, 0.000000000000000000, 1.000000000000000000 ) ) ;
#487 = DIRECTION ( 'NONE',  ( 0.000000000000000000, 0.000000000000000000, 1.000000000000000000 ) ) ;
#488 = AXIS2_PLACEMENT_3D ( 'NONE', #962, #487, #969 ) ;
#489 = TOROIDAL_SURFACE ( 'NONE', #587, 70.00000000000000000, 5.000000000000000000 ) ;
#490 = VERTEX_POINT ( 'NONE', #767 ) ;
#491 = CARTESIAN_POINT ( 'NONE',  ( 26.08059883933330880, 20.00000000000001421, -4.166167665741181025 ) ) ;
#492 = EDGE_CURVE ( 'NONE', #653, #979, #94, .T. ) ;
#493 = ORIENTED_EDGE ( 'NONE', *, *, #346, .F. ) ;
#494 = DIRECTION ( 'NONE',  ( -1.000000000000000000, 0.000000000000000000, 0.000000000000000000 ) ) ;
#495 = EDGE_LOOP ( 'NONE', ( #827, #611, #148, #396, #378 ) ) ;
#496 = CARTESIAN_POINT ( 'NONE',  ( -34.12190445805375560, 23.41695855566931783, 5.241369676678304224 ) ) ;
#497 = DIRECTION ( 'NONE',  ( -1.000000000000000000, 0.000000000000000000, 0.000000000000000000 ) ) ;
#498 = EDGE_CURVE ( 'NONE', #515, #867, #64, .T. ) ;
#499 = AXIS2_PLACEMENT_3D ( 'NONE', #543, #854, #119 ) ;
#500 = EDGE_LOOP ( 'NONE', ( #697, #889 ) ) ;
#501 = CYLINDRICAL_SURFACE ( 'NONE', #147, 75.00000000000001421 ) ;
#502 = CARTESIAN_POINT ( 'NONE',  ( 61.47880809800906832, 41.30284372434919504, 5.000000000000001776 ) ) ;
#503 = EDGE_CURVE ( 'NONE', #730, #117, #622, .T. ) ;
#504 = AXIS2_PLACEMENT_3D ( 'NONE', #732, #572, #878 ) ;
#505 = VERTEX_POINT ( 'NONE', #444 ) ;
#506 = CARTESIAN_POINT ( 'NONE',  ( 0.000000000000000000, 100.0000000000000000, 7.499999999999973355 ) ) ;
#507 = DIRECTION ( 'NONE',  ( 0.000000000000000000, 0.000000000000000000, -1.000000000000000000 ) ) ;
#508 = EDGE_CURVE ( 'NONE', #702, #775, #914, .T. ) ;
#509 = CARTESIAN_POINT ( 'NONE',  ( 23.39416396016649813, 22.17078254039848062, -5.873295808009615371 ) ) ;
#510 = VERTEX_POINT ( 'NONE', #1004 ) ;
#511 = CARTESIAN_POINT ( 'NONE',  ( 27.87823517535995066, 20.00000000000000355, 2.500000000000055955 ) ) ;
#512 = CC_DESIGN_APPROVAL ( #584, ( #630 ) ) ;
#513 = CARTESIAN_POINT ( 'NONE',  ( -29.14328111629911433, 20.02594986735487836, -9.413722536941030228 ) ) ;
#514 = CARTESIAN_POINT ( 'NONE',  ( 23.58016445008559359, 23.52660952023466479, -5.218225693285951650 ) ) ;
#515 = VERTEX_POINT ( 'NONE', #251 ) ;
#516 = LINE ( 'NONE', #912, #784 ) ;
#517 = CARTESIAN_POINT ( 'NONE',  ( 0.000000000000000000, 15.00000000000000355, 0.000000000000000000 ) ) ;
#518 = CARTESIAN_POINT ( 'NONE',  ( 23.33690123736504773, 22.02067074892036658, -5.980548141887207514 ) ) ;
#519 = VECTOR ( 'NONE', #888, 1000.000000000000000 ) ;
#520 = CC_DESIGN_DATE_AND_TIME_ASSIGNMENT ( #718, #641, ( #405 ) ) ;
#521 = EDGE_LOOP ( 'NONE', ( #223, #67, #569, #103 ) ) ;
#522 = ADVANCED_FACE ( 'NONE', ( #189 ), #724, .F. ) ;
#523 = DIRECTION ( 'NONE',  ( 0.000000000000000000, 1.000000000000000000, 0.000000000000000000 ) ) ;
#524 = CARTESIAN_POINT ( 'NONE',  ( -5.000000000000001776, 100.0000000000000000, -5.000000000000001776 ) ) ;
#525 = CARTESIAN_POINT ( 'NONE',  ( -34.64854121788241059, 25.00000000000000355, -5.000000000000001776 ) ) ;
#526 = CARTESIAN_POINT ( 'NONE',  ( 23.52159826595814707, 22.64646865626966132, -5.584456698031226018 ) ) ;
#527 = VERTEX_POINT ( 'NONE', #29 ) ;
#528 = CARTESIAN_POINT ( 'NONE',  ( 26.08059883933345802, 20.00000000000000355, 4.166167665741236981 ) ) ;
#529 = DIRECTION ( 'NONE',  ( 0.000000000000000000, 0.000000000000000000, 1.000000000000000000 ) ) ;
#530 = CYLINDRICAL_SURFACE ( 'NONE', #540, 5.000000000000001776 ) ;
#531 = CARTESIAN_POINT ( 'NONE',  ( 23.48624643341338825, 22.48316832484916361, -5.675683031869357187 ) ) ;
#532 = ORIENTED_EDGE ( 'NONE', *, *, #332, .T. ) ;
#533 = APPROVAL_STATUS ( 'not_yet_approved' ) ;
#534 = CYLINDRICAL_SURFACE ( 'NONE', #174, 75.00000000000001421 ) ;
#535 = CARTESIAN_POINT ( 'NONE',  ( -30.66673864584216957, 20.40220500368794987, -8.013961265074188489 ) ) ;
#536 = DIRECTION ( 'NONE',  ( -1.000000000000000000, 0.000000000000000000, 0.000000000000000000 ) ) ;
#537 = EDGE_CURVE ( 'NONE', #191, #234, #349, .T. ) ;
#538 = EDGE_CURVE ( 'NONE', #583, #800, #574, .T. ) ;
#539 = ORIENTED_EDGE ( 'NONE', *, *, #346, .T. ) ;
#540 = AXIS2_PLACEMENT_3D ( 'NONE', #114, #985, #837 ) ;
#541 = MECHANICAL_CONTEXT ( 'NONE', #1023, 'mechanical' ) ;
#542 = ADVANCED_FACE ( 'NONE', ( #847 ), #530, .F. ) ;
#543 = CARTESIAN_POINT ( 'NONE',  ( 194.6183915816770877, 87.80649114647422948, 5.000000000000001776 ) ) ;
#544 = LINE ( 'NONE', #221, #603 ) ;
#545 = ORIENTED_EDGE ( 'NONE', *, *, #643, .T. ) ;
#546 = CONICAL_SURFACE ( 'NONE', #438, 100.0000000000000000, 0.7853981633974510546 ) ;
#547 = FACE_OUTER_BOUND ( 'NONE', #17, .T. ) ;
#548 = ORIENTED_EDGE ( 'NONE', *, *, #369, .T. ) ;
#549 = FACE_OUTER_BOUND ( 'NONE', #178, .T. ) ;
#550 = ORIENTED_EDGE ( 'NONE', *, *, #869, .T. ) ;
#551 = CC_DESIGN_APPROVAL ( #193, ( #405 ) ) ;
#552 = APPLICATION_PROTOCOL_DEFINITION ( 'international standard', 'config_control_design', 1994, #1023 ) ;
#553 = AXIS2_PLACEMENT_3D ( 'NONE', #188, #529, #841 ) ;
#554 = CARTESIAN_POINT ( 'NONE',  ( 15.00000000000001066, 100.0000000000000000, -2.499999999999888534 ) ) ;
#555 = CARTESIAN_POINT ( 'NONE',  ( 0.000000000000000000, -1.000000000000000888, 75.00000000000001421 ) ) ;
#556 = EDGE_LOOP ( 'NONE', ( #163, #1059, #282, #759 ) ) ;
#557 = FACE_OUTER_BOUND ( 'NONE', #495, .T. ) ;
#558 = APPROVAL_DATE_TIME ( #929, #403 ) ;
#559 = AXIS2_PLACEMENT_3D ( 'NONE', #456, #35, #670 ) ;
#560 = DIRECTION ( 'NONE',  ( 0.000000000000000000, 0.000000000000000000, -1.000000000000000000 ) ) ;
#561 = VERTEX_POINT ( 'NONE', #100 ) ;
#562 = DIRECTION ( 'NONE',  ( -1.000000000000000000, -3.193792262620310915E-14, 0.000000000000000000 ) ) ;
#563 = CARTESIAN_POINT ( 'NONE',  ( 10.00000000000000000, 100.0000000000000000, 5.000000000000001776 ) ) ;
#564 = ORIENTED_EDGE ( 'NONE', *, *, #313, .T. ) ;
#565 = DIRECTION ( 'NONE',  ( -1.000000000000000000, 0.000000000000000000, 0.000000000000000000 ) ) ;
#566 = CC_DESIGN_APPROVAL ( #403, ( #368 ) ) ;
#567 = DIRECTION ( 'NONE',  ( 0.000000000000000000, 0.000000000000000000, 1.000000000000000000 ) ) ;
#568 = ADVANCED_FACE ( 'NONE', ( #842 ), #107, .F. ) ;
#569 = ORIENTED_EDGE ( 'NONE', *, *, #404, .F. ) ;
#570 = DIRECTION ( 'NONE',  ( 1.000000000000000000, 0.000000000000000000, 0.000000000000000000 ) ) ;
#571 = VERTEX_POINT ( 'NONE', #903 ) ;
#572 = DIRECTION ( 'NONE',  ( 0.000000000000000000, 0.000000000000000000, 1.000000000000000000 ) ) ;
#573 = AXIS2_PLACEMENT_3D ( 'NONE', #479, #1028, #280 ) ;
#574 = CIRCLE ( 'NONE', #376, 99.99999999999998579 ) ;
#575 = ORIENTED_EDGE ( 'NONE', *, *, #650, .F. ) ;
#576 = CARTESIAN_POINT ( 'NONE',  ( 7.499999999999978684, 100.0000000000000000, 10.00000000000000178 ) ) ;
#577 = CARTESIAN_POINT ( 'NONE',  ( 61.47880809800906832, 41.30284372434919504, 5.000000000000001776 ) ) ;
#578 = ORIENTED_EDGE ( 'NONE', *, *, #807, .T. ) ;
#579 = DIRECTION ( 'NONE',  ( -0.000000000000000000, -1.000000000000000000, -0.000000000000000000 ) ) ;
#580 = LINE ( 'NONE', #884, #91 ) ;
#581 = VERTEX_POINT ( 'NONE', #213 ) ;
#582 = CARTESIAN_POINT ( 'NONE',  ( 14.61839158167707531, 87.80649114647422948, -2.499999999999888534 ) ) ;
#583 = VERTEX_POINT ( 'NONE', #1015 ) ;
#584 = APPROVAL ( #698, 'UNSPECIFIED' ) ;
#585 = CARTESIAN_POINT ( 'NONE',  ( 0.000000000000000000, 100.0000000000000000, -5.000000000000001776 ) ) ;
#586 = VECTOR ( 'NONE', #318, 1000.000000000000000 ) ;
#587 = AXIS2_PLACEMENT_3D ( 'NONE', #517, #429, #771 ) ;
#588 = ORIENTED_EDGE ( 'NONE', *, *, #857, .F. ) ;
#589 = DIRECTION ( 'NONE',  ( -0.000000000000000000, 0.000000000000000000, -1.000000000000000000 ) ) ;
#590 = EDGE_CURVE ( 'NONE', #34, #37, #790, .T. ) ;
#591 = FACE_OUTER_BOUND ( 'NONE', #330, .T. ) ;
#592 = FACE_OUTER_BOUND ( 'NONE', #1038, .T. ) ;
#593 = EDGE_LOOP ( 'NONE', ( #248, #885, #987, #941, #638, #49 ) ) ;
#594 = DIRECTION ( 'NONE',  ( -1.000000000000000000, 0.000000000000000000, 0.000000000000000000 ) ) ;
#595 = CARTESIAN_POINT ( 'NONE',  ( -33.80986346985738322, 22.91253296663109040, -5.453090225540347724 ) ) ;
#596 = CARTESIAN_POINT ( 'NONE',  ( 20.36338762674731484, 20.02028847535718015, 9.475325432817898630 ) ) ;
#597 = EDGE_CURVE ( 'NONE', #510, #112, #657, .T. ) ;
#598 = AXIS2_PLACEMENT_3D ( 'NONE', #820, #263, #921 ) ;
#599 = ORIENTED_EDGE ( 'NONE', *, *, #632, .T. ) ;
#600 = DIRECTION ( 'NONE',  ( 0.000000000000000000, 0.000000000000000000, -1.000000000000000000 ) ) ;
#601 = CARTESIAN_POINT ( 'NONE',  ( -33.91639827174957844, 23.07917762413310925, -5.379913173703458895 ) ) ;
#602 = DIRECTION ( 'NONE',  ( -0.7071067811865455743, 0.000000000000000000, -0.7071067811865495711 ) ) ;
#603 = VECTOR ( 'NONE', #855, 1000.000000000000000 ) ;
#604 = ORIENTED_EDGE ( 'NONE', *, *, #887, .T. ) ;
#605 = CARTESIAN_POINT ( 'NONE',  ( -28.53474004478982096, 20.00000000000000355, 10.00000000000000178 ) ) ;
#606 = CARTESIAN_POINT ( 'NONE',  ( 14.61839158167707531, 87.80649114647422948, 2.500000000000055067 ) ) ;
#607 = DESIGN_CONTEXT ( 'detailed design', #238, 'design' ) ;
#608 = CARTESIAN_POINT ( 'NONE',  ( 61.47880809800906832, 41.30284372434919504, -2.499999999999888534 ) ) ;
#609 = CARTESIAN_POINT ( 'NONE',  ( 23.56917651487514576, 22.98850943609400943, -5.418511361053099051 ) ) ;
#610 = CARTESIAN_POINT ( 'NONE',  ( 0.000000000000000000, 100.0000000000000000, 10.00000000000000178 ) ) ;
#611 = ORIENTED_EDGE ( 'NONE', *, *, #31, .T. ) ;
#612 = DIRECTION ( 'NONE',  ( -0.000000000000000000, -0.000000000000000000, -1.000000000000000000 ) ) ;
#613 = ADVANCED_FACE ( 'NONE', ( #209, #549 ), #288, .T. ) ;
#614 = FACE_OUTER_BOUND ( 'NONE', #41, .T. ) ;
#615 = CARTESIAN_POINT ( 'NONE',  ( -32.69732205189121288, 21.63024023850534050, -6.291568735721940975 ) ) ;
#616 = DIRECTION ( 'NONE',  ( -0.000000000000000000, -0.000000000000000000, 1.000000000000000000 ) ) ;
#617 = ORIENTED_EDGE ( 'NONE', *, *, #772, .T. ) ;
#618 = DIRECTION ( 'NONE',  ( -1.000000000000000000, 0.000000000000000000, 0.000000000000000000 ) ) ;
#619 = LINE ( 'NONE', #629, #229 ) ;
#620 = ORIENTED_EDGE ( 'NONE', *, *, #797, .F. ) ;
#621 = CIRCLE ( 'NONE', #180, 97.50000000000004263 ) ;
#622 = CIRCLE ( 'NONE', #832, 180.0000000000000284 ) ;
#623 = CALENDAR_DATE ( 2026, 12, 8 ) ;
#624 = CYLINDRICAL_SURFACE ( 'NONE', #243, 5.000000000000000888 ) ;
#625 = LINE ( 'NONE', #377, #358 ) ;
#626 = EDGE_CURVE ( 'NONE', #37, #979, #723, .T. ) ;
#627 = ORIENTED_EDGE ( 'NONE', *, *, #250, .T. ) ;
#628 =( NAMED_UNIT ( * ) PLANE_ANGLE_UNIT ( ) SI_UNIT ( $, .RADIAN. ) );
#629 = CARTESIAN_POINT ( 'NONE',  ( -10.00000000000000000, 100.0000000000000000, 10.00000000000000178 ) ) ;
#630 = PRODUCT_DEFINITION ( 'UNKNOWN', '', #368, #607 ) ;
#631 = CIRCLE ( 'NONE', #446, 15.00000000000001066 ) ;
#632 = EDGE_CURVE ( 'NONE', #363, #717, #294, .T. ) ;
#633 = ORIENTED_EDGE ( 'NONE', *, *, #323, .F. ) ;
#634 = CALENDAR_DATE ( 2026, 12, 8 ) ;
#635 = VECTOR ( 'NONE', #602, 1000.000000000000114 ) ;
#636 = CARTESIAN_POINT ( 'NONE',  ( -33.66549729782599343, 20.00000000000000355, -5.000000000000007994 ) ) ;
#637 = DIRECTION ( 'NONE',  ( 1.000000000000000000, 0.000000000000000000, 0.000000000000000000 ) ) ;
#638 = ORIENTED_EDGE ( 'NONE', *, *, #172, .F. ) ;
#639 = CARTESIAN_POINT ( 'NONE',  ( 0.000000000000000000, 100.0000000000000000, 5.000000000000001776 ) ) ;
#640 = VECTOR ( 'NONE', #204, 1000.000000000000000 ) ;
#641 = DATE_TIME_ROLE ( 'classification_date' ) ;
#642 = AXIS2_PLACEMENT_3D ( 'NONE', #162, #73, #327 ) ;
#643 = EDGE_CURVE ( 'NONE', #879, #505, #619, .T. ) ;
#644 = CARTESIAN_POINT ( 'NONE',  ( 194.6183915816770877, 87.80649114647422948, -2.499999999999888534 ) ) ;
#645 = ORIENTED_EDGE ( 'NONE', *, *, #404, .T. ) ;
#646 = DIRECTION ( 'NONE',  ( -1.000000000000000000, 0.000000000000000000, 0.000000000000000000 ) ) ;
#647 = ADVANCED_FACE ( 'NONE', ( #860 ), #895, .F. ) ;
#648 = CARTESIAN_POINT ( 'NONE',  ( 0.000000000000000000, 15.00000000000000355, 75.00000000000001421 ) ) ;
#649 = ORIENTED_EDGE ( 'NONE', *, *, #308, .F. ) ;
#650 = EDGE_CURVE ( 'NONE', #271, #879, #625, .T. ) ;
#651 = CARTESIAN_POINT ( 'NONE',  ( -30.95865609349991132, 20.52200534523488074, 7.755693749408830939 ) ) ;
#652 = DIRECTION ( 'NONE',  ( 0.000000000000000000, 0.000000000000000000, -1.000000000000000000 ) ) ;
#653 = VERTEX_POINT ( 'NONE', #135 ) ;
#654 = CARTESIAN_POINT ( 'NONE',  ( -31.55540320902436946, 20.82128075058363237, 7.238179566100541251 ) ) ;
#655 = ORIENTED_EDGE ( 'NONE', *, *, #683, .T. ) ;
#656 = DIRECTION ( 'NONE',  ( -0.000000000000000000, -0.000000000000000000, -1.000000000000000000 ) ) ;
#657 = CIRCLE ( 'NONE', #774, 180.0000000000000284 ) ;
#658 = EDGE_LOOP ( 'NONE', ( #1047, #741, #809, #7, #627, #564, #645, #991 ) ) ;
#659 = DIRECTION ( 'NONE',  ( -0.000000000000000000, -0.000000000000000000, 1.000000000000000000 ) ) ;
#660 = CALENDAR_DATE ( 2026, 12, 8 ) ;
#661 = DIRECTION ( 'NONE',  ( -1.000000000000000000, 0.000000000000000000, 0.000000000000000000 ) ) ;
#662 = EDGE_LOOP ( 'NONE', ( #427, #121 ) ) ;
#663 = CARTESIAN_POINT ( 'NONE',  ( -34.64854121788259533, 25.00000000000000711, 5.000000000000001776 ) ) ;
#664 = APPROVAL_PERSON_ORGANIZATION ( #954, #193, #845 ) ;
#665 = PLANE ( 'NONE',  #504 ) ;
#666 = LINE ( 'NONE', #703, #59 ) ;
#667 = CARTESIAN_POINT ( 'NONE',  ( 61.47880809800906832, 41.30284372434919504, 2.500000000000055067 ) ) ;
#668 = FACE_OUTER_BOUND ( 'NONE', #344, .T. ) ;
#669 = CONICAL_SURFACE ( 'NONE', #320, 7.499999999999978684, 0.7853981633974469467 ) ;
#670 = DIRECTION ( 'NONE',  ( -1.000000000000000000, 0.000000000000000000, 0.000000000000000000 ) ) ;
#671 = CARTESIAN_POINT ( 'NONE',  ( 22.97243504301783901, 21.35693211823753757, -6.559398271760953136 ) ) ;
#672 = CONICAL_SURFACE ( 'NONE', #883, 7.499999999999978684, 0.7853981633974469467 ) ;
#673 = ORIENTED_EDGE ( 'NONE', *, *, #84, .T. ) ;
#674 = CC_DESIGN_PERSON_AND_ORGANIZATION_ASSIGNMENT ( #55, #373, ( #368 ) ) ;
#675 = CYLINDRICAL_SURFACE ( 'NONE', #754, 5.000000000000001776 ) ;
#676 = EDGE_CURVE ( 'NONE', #11, #867, #1055, .T. ) ;
#677 = DIRECTION ( 'NONE',  ( 1.000000000000000000, 0.000000000000000000, 0.000000000000000000 ) ) ;
#678 = CARTESIAN_POINT ( 'NONE',  ( 22.97218950287783201, 21.35685445726693032, 6.559655695802066866 ) ) ;
#679 = VERTEX_POINT ( 'NONE', #711 ) ;
#680 = DIRECTION ( 'NONE',  ( -0.000000000000000000, -0.000000000000000000, 1.000000000000000000 ) ) ;
#681 = CARTESIAN_POINT ( 'NONE',  ( 20.90197829083172820, 20.10567569318559222, 8.942455745685380819 ) ) ;
#682 = CIRCLE ( 'NONE', #214, 10.00000000000000000 ) ;
#683 = EDGE_CURVE ( 'NONE', #881, #583, #793, .T. ) ;
#684 = ORIENTED_EDGE ( 'NONE', *, *, #255, .T. ) ;
#685 = CARTESIAN_POINT ( 'NONE',  ( 0.000000000000000000, -1.000000000000000888, 0.000000000000000000 ) ) ;
#686 = CARTESIAN_POINT ( 'NONE',  ( 0.000000000000000000, 100.0000000000000000, 10.00000000000000178 ) ) ;
#687 = CARTESIAN_POINT ( 'NONE',  ( -28.83821494117740869, 20.00000000000029843, -9.704682678960736553 ) ) ;
#688 = CARTESIAN_POINT ( 'NONE',  ( -10.84920142906043772, 110.3583216957030828, -2.499999999999888534 ) ) ;
#689 = ADVANCED_FACE ( 'NONE', ( #57, #719 ), #482, .T. ) ;
#690 = AXIS2_PLACEMENT_3D ( 'NONE', #983, #1006, #359 ) ;
#691 = ORIENTED_EDGE ( 'NONE', *, *, #797, .T. ) ;
#692 = LINE ( 'NONE', #819, #386 ) ;
#693 = ADVANCED_FACE ( 'NONE', ( #365 ), #388, .T. ) ;
#694 = CARTESIAN_POINT ( 'NONE',  ( 14.97064550628285318, 99.06203778049800235, -2.499999999999886757 ) ) ;
#695 = DIRECTION ( 'NONE',  ( 1.000000000000000000, -0.000000000000000000, 1.224646799147353207E-16 ) ) ;
#696 = CARTESIAN_POINT ( 'NONE',  ( 23.13910726689051955, 21.60000743717339589, 6.316204071706190248 ) ) ;
#697 = ORIENTED_EDGE ( 'NONE', *, *, #130, .F. ) ;
#698 = APPROVAL_STATUS ( 'not_yet_approved' ) ;
#699 = FACE_OUTER_BOUND ( 'NONE', #219, .T. ) ;
#700 = DIRECTION ( 'NONE',  ( -1.000000000000000000, 0.000000000000000000, 0.000000000000000000 ) ) ;
#701 = LINE ( 'NONE', #848, #314 ) ;
#702 = VERTEX_POINT ( 'NONE', #555 ) ;
#703 = CARTESIAN_POINT ( 'NONE',  ( 0.000000000000000000, 20.00000000000000355, 10.00000000000000178 ) ) ;
#704 = DIRECTION ( 'NONE',  ( -0.000000000000000000, 0.000000000000000000, -1.000000000000000000 ) ) ;
#705 = VERTEX_POINT ( 'NONE', #563 ) ;
#706 = AXIS2_PLACEMENT_3D ( 'NONE', #896, #656, #143 ) ;
#707 = PLANE ( 'NONE',  #1039 ) ;
#708 = AXIS2_PLACEMENT_3D ( 'NONE', #43, #1, #450 ) ;
#709 = PERSON_AND_ORGANIZATION_ROLE ( 'classification_officer' ) ;
#710 = CARTESIAN_POINT ( 'NONE',  ( 20.90628296404039332, 20.07879054700026700, -8.948217623393212250 ) ) ;
#711 = CARTESIAN_POINT ( 'NONE',  ( 12.47553792190245403, 99.21836481708166389, 5.000000000000001776 ) ) ;
#712 = EDGE_CURVE ( 'NONE', #527, #785, #544, .T. ) ;
#713 = EDGE_LOOP ( 'NONE', ( #813, #944, #463, #70, #105 ) ) ;
#714 = CIRCLE ( 'NONE', #24, 99.99999999999998579 ) ;
#715 = CARTESIAN_POINT ( 'NONE',  ( 0.000000000000000000, 100.0000000000000000, 10.00000000000000178 ) ) ;
#716 = DIRECTION ( 'NONE',  ( -1.000000000000000000, 1.804112415015879773E-15, 0.000000000000000000 ) ) ;
#717 = VERTEX_POINT ( 'NONE', #475 ) ;
#718 = DATE_AND_TIME ( #1026, #156 ) ;
#719 = FACE_BOUND ( 'NONE', #658, .T. ) ;
#720 = ORIENTED_EDGE ( 'NONE', *, *, #676, .T. ) ;
#721 = EDGE_CURVE ( 'NONE', #823, #583, #738, .T. ) ;
#722 = CARTESIAN_POINT ( 'NONE',  ( 27.87823517535995066, 20.00000000000000355, 5.000000000000001776 ) ) ;
#723 = CIRCLE ( 'NONE', #573, 5.000000000000001776 ) ;
#724 = CONICAL_SURFACE ( 'NONE', #984, 182.4999999999999432, 0.7853981633974427279 ) ;
#725 = EDGE_CURVE ( 'NONE', #800, #234, #153, .T. ) ;
#726 = CARTESIAN_POINT ( 'NONE',  ( 0.000000000000000000, -1.000000000000000888, 0.000000000000000000 ) ) ;
#727 = ORIENTED_EDGE ( 'NONE', *, *, #172, .T. ) ;
#728 = DIRECTION ( 'NONE',  ( 0.000000000000000000, 0.000000000000000000, -1.000000000000000000 ) ) ;
#729 = CARTESIAN_POINT ( 'NONE',  ( 0.000000000000000000, 100.0000000000000000, 2.500000000000054623 ) ) ;
#730 = VERTEX_POINT ( 'NONE', #891 ) ;
#731 = CARTESIAN_POINT ( 'NONE',  ( -30.65517650550670581, 20.39777360799616091, 8.024255527793926035 ) ) ;
#732 = CARTESIAN_POINT ( 'NONE',  ( 0.000000000000000000, 100.0000000000000000, 10.00000000000000178 ) ) ;
#733 = EDGE_CURVE ( 'NONE', #168, #1000, #374, .T. ) ;
#734 = AXIS2_PLACEMENT_3D ( 'NONE', #116, #926, #36 ) ;
#735 = ORIENTED_EDGE ( 'NONE', *, *, #1033, .T. ) ;
#736 = CARTESIAN_POINT ( 'NONE',  ( -32.41355002123678020, 21.39573909635905835, 6.520822639984999114 ) ) ;
#737 = FACE_OUTER_BOUND ( 'NONE', #788, .T. ) ;
#738 = CIRCLE ( 'NONE', #951, 99.99999999999998579 ) ;
#739 = CARTESIAN_POINT ( 'NONE',  ( 22.58189579316613305, 20.94302480057747928, -7.073229607826984733 ) ) ;
#740 = CLOSED_SHELL ( 'NONE', ( #945, #900, #220, #106, #264, #647, #568, #811, #981, #339, #689, #51, #1045, #484, #693, #101, #398, #958, #613, #383, #1012, #270, #522, #236, #897, #65, #949, #8, #834, #442, #542, #423 ) ) ;
#741 = ORIENTED_EDGE ( 'NONE', *, *, #1049, .T. ) ;
#742 = CARTESIAN_POINT ( 'NONE',  ( 27.87823517535995066, 20.00000000000000355, -2.499999999999886757 ) ) ;
#743 = ORIENTED_EDGE ( 'NONE', *, *, #857, .T. ) ;
#744 = DIRECTION ( 'NONE',  ( 0.000000000000000000, 1.000000000000000000, 0.000000000000000000 ) ) ;
#745 = ORIENTED_EDGE ( 'NONE', *, *, #632, .F. ) ;
#746 = FACE_OUTER_BOUND ( 'NONE', #713, .T. ) ;
#747 = ORIENTED_EDGE ( 'NONE', *, *, #537, .F. ) ;
#748 = FACE_OUTER_BOUND ( 'NONE', #310, .T. ) ;
#749 = CARTESIAN_POINT ( 'NONE',  ( 23.49342058377197162, 24.27110599306395855, 5.038671362690237743 ) ) ;
#750 = CIRCLE ( 'NONE', #281, 182.4999999999999432 ) ;
#751 = EDGE_LOOP ( 'NONE', ( #956, #459, #367, #966, #795, #25 ) ) ;
#752 = EDGE_CURVE ( 'NONE', #717, #730, #453, .T. ) ;
#753 = CYLINDRICAL_SURFACE ( 'NONE', #690, 5.000000000000000888 ) ;
#754 = AXIS2_PLACEMENT_3D ( 'NONE', #261, #612, #923 ) ;
#755 = CARTESIAN_POINT ( 'NONE',  ( 8.572527594031472993E-15, 15.00000000000000355, -70.00000000000000000 ) ) ;
#756 = CARTESIAN_POINT ( 'NONE',  ( 22.68448080505097408, 21.04045253367634416, -6.942320353143156098 ) ) ;
#757 = VECTOR ( 'NONE', #196, 1000.000000000000000 ) ;
#758 = DATE_AND_TIME ( #660, #959 ) ;
#759 = ORIENTED_EDGE ( 'NONE', *, *, #14, .F. ) ;
#760 = CARTESIAN_POINT ( 'NONE',  ( 26.97917886122703734, 19.99999999999999289, 3.332826613536759464 ) ) ;
#761 = CARTESIAN_POINT ( 'NONE',  ( 194.6183915816770877, 87.80649114647422948, 2.500000000000055067 ) ) ;
#762 = CARTESIAN_POINT ( 'NONE',  ( -28.53474004478982096, 20.00000000000000355, 10.00000000000000178 ) ) ;
#763 = PRODUCT ( 'Part_0_LINK_0_Default_sldprt', 'Part_0_LINK_0_Default_sldprt', '', ( #541 ) ) ;
#764 = ORIENTED_EDGE ( 'NONE', *, *, #115, .F. ) ;
#765 = DIRECTION ( 'NONE',  ( -0.000000000000000000, -0.000000000000000000, 1.000000000000000000 ) ) ;
#766 = CYLINDRICAL_SURFACE ( 'NONE', #499, 180.0000000000000284 ) ;
#767 = CARTESIAN_POINT ( 'NONE',  ( -36.02119190199098853, 41.30284372434919504, 5.000000000000001776 ) ) ;
#768 = ORIENTED_EDGE ( 'NONE', *, *, #794, .T. ) ;
#769 = CARTESIAN_POINT ( 'NONE',  ( 0.000000000000000000, 100.0000000000000000, -2.499999999999888534 ) ) ;
#770 = ORIENTED_EDGE ( 'NONE', *, *, #419, .T. ) ;
#771 = DIRECTION ( 'NONE',  ( 0.000000000000000000, 0.000000000000000000, 1.000000000000000000 ) ) ;
#772 = EDGE_CURVE ( 'NONE', #291, #561, #1037, .T. ) ;
#773 = CARTESIAN_POINT ( 'NONE',  ( 19.80840972021970003, 20.00000000000000355, 10.00000000000000178 ) ) ;
#774 = AXIS2_PLACEMENT_3D ( 'NONE', #644, #560, #955 ) ;
#775 = VERTEX_POINT ( 'NONE', #648 ) ;
#776 = COORDINATED_UNIVERSAL_TIME_OFFSET ( 5, 30, .AHEAD. ) ;
#777 = CARTESIAN_POINT ( 'NONE',  ( 0.000000000000000000, 100.0000000000000000, -2.499999999999888534 ) ) ;
#778 = CARTESIAN_POINT ( 'NONE',  ( -30.96591441802164368, 20.52535698604845038, -7.749343774929637441 ) ) ;
#779 = DIRECTION ( 'NONE',  ( 1.000000000000000000, -0.000000000000000000, -0.000000000000000000 ) ) ;
#780 = EDGE_LOOP ( 'NONE', ( #852, #817, #53, #575 ) ) ;
#781 = PERSON_AND_ORGANIZATION ( #939, #975 ) ;
#782 = DIRECTION ( 'NONE',  ( 0.000000000000000000, 0.000000000000000000, -1.000000000000000000 ) ) ;
#783 = DIRECTION ( 'NONE',  ( -1.000000000000000000, 0.000000000000000000, 0.000000000000000000 ) ) ;
#784 = VECTOR ( 'NONE', #181, 1000.000000000000000 ) ;
#785 = VERTEX_POINT ( 'NONE', #149 ) ;
#786 = EDGE_CURVE ( 'NONE', #276, #800, #815, .T. ) ;
#787 = DIRECTION ( 'NONE',  ( -0.7071067811865465735, 0.000000000000000000, -0.7071067811865485719 ) ) ;
#788 = EDGE_LOOP ( 'NONE', ( #75, #80, #599, #1034 ) ) ;
#789 = CARTESIAN_POINT ( 'NONE',  ( -35.37261447524440428, 20.00000000000000355, 3.333593532053081621 ) ) ;
#790 = LINE ( 'NONE', #1036, #132 ) ;
#791 = EDGE_LOOP ( 'NONE', ( #418, #655, #173, #230 ) ) ;
#792 =( NAMED_UNIT ( * ) SI_UNIT ( $, .STERADIAN. ) SOLID_ANGLE_UNIT ( ) );
#793 = LINE ( 'NONE', #874, #640 ) ;
#794 = EDGE_CURVE ( 'NONE', #702, #928, #431, .T. ) ;
#795 = ORIENTED_EDGE ( 'NONE', *, *, #538, .F. ) ;
#796 = CARTESIAN_POINT ( 'NONE',  ( 0.000000000000000000, 100.0000000000000000, 4.999999999999998224 ) ) ;
#797 = EDGE_CURVE ( 'NONE', #867, #11, #201, .T. ) ;
#798 = CONICAL_SURFACE ( 'NONE', #927, 97.50000000000005684, 0.7853981633974456145 ) ;
#799 = DIRECTION ( 'NONE',  ( 0.000000000000000000, 1.000000000000000000, 0.000000000000000000 ) ) ;
#800 = VERTEX_POINT ( 'NONE', #312 ) ;
#801 = CARTESIAN_POINT ( 'NONE',  ( 26.97917886122695919, 20.00000000000000355, -3.332826613536647553 ) ) ;
#802 = CONICAL_SURFACE ( 'NONE', #144, 97.50000000000005684, 0.7853981633974456145 ) ;
#803 = AXIS2_PLACEMENT_3D ( 'NONE', #877, #420, #486 ) ;
#804 = CARTESIAN_POINT ( 'NONE',  ( 0.000000000000000000, 100.0000000000000000, 4.999999999999998224 ) ) ;
#805 = ORIENTED_EDGE ( 'NONE', *, *, #821, .T. ) ;
#806 = DIRECTION ( 'NONE',  ( 0.000000000000000000, 1.000000000000000000, 0.000000000000000000 ) ) ;
#807 = EDGE_CURVE ( 'NONE', #363, #490, #621, .T. ) ;
#808 = CARTESIAN_POINT ( 'NONE',  ( 14.97064550628286028, 99.06203778049800235, -2.499999999999888534 ) ) ;
#809 = ORIENTED_EDGE ( 'NONE', *, *, #786, .T. ) ;
#810 = CARTESIAN_POINT ( 'NONE',  ( -34.57709407450433758, 24.57872229990846691, 5.000000000000002665 ) ) ;
#811 = ADVANCED_FACE ( 'NONE', ( #79 ), #228, .T. ) ;
#812 = DIRECTION ( 'NONE',  ( -0.000000000000000000, -0.000000000000000000, -1.000000000000000000 ) ) ;
#813 = ORIENTED_EDGE ( 'NONE', *, *, #289, .F. ) ;
#814 = CARTESIAN_POINT ( 'NONE',  ( 0.000000000000000000, -1.000000000000000888, 0.000000000000000000 ) ) ;
#815 = LINE ( 'NONE', #399, #586 ) ;
#816 = AXIS2_PLACEMENT_3D ( 'NONE', #139, #704, #700 ) ;
#817 = ORIENTED_EDGE ( 'NONE', *, *, #308, .T. ) ;
#818 = CARTESIAN_POINT ( 'NONE',  ( -32.68964724864651572, 21.62319544203818822, 6.297650973234253158 ) ) ;
#819 = CARTESIAN_POINT ( 'NONE',  ( 9.184850993605150311E-15, -1.000000000000000888, -75.00000000000001421 ) ) ;
#820 = CARTESIAN_POINT ( 'NONE',  ( 0.000000000000000000, 15.00000000000000355, 0.000000000000000000 ) ) ;
#821 = EDGE_CURVE ( 'NONE', #400, #705, #309, .T. ) ;
#822 = B_SPLINE_CURVE_WITH_KNOTS ( 'NONE', 3,
 ( #311, #401, #76, #731, #651, #654, #152, #736, #818, #1058, #971, #81, #496, #1048, #810, #663 ),
 .UNSPECIFIED., .F., .F.,
 ( 4, 2, 2, 2, 2, 2, 2, 4 ),
 ( 0.000000000000000000, 0.002506277036263337282, 0.003759415554395004622, 0.005012554072526671962, 0.006265692590658339736, 0.007518831108790006643, 0.008771969626921675284, 0.01002510814505334219 ),
 .UNSPECIFIED. ) ;
#823 = VERTEX_POINT ( 'NONE', #417 ) ;
#824 = CARTESIAN_POINT ( 'NONE',  ( 19.80840972021970003, 20.00000000000000355, 10.00000000000000178 ) ) ;
#825 = DIRECTION ( 'NONE',  ( -0.000000000000000000, -0.000000000000000000, 1.000000000000000000 ) ) ;
#826 = CARTESIAN_POINT ( 'NONE',  ( 23.38939905916656414, 24.63613456542062252, -5.009796898118426434 ) ) ;
#827 = ORIENTED_EDGE ( 'NONE', *, *, #862, .T. ) ;
#828 = FACE_OUTER_BOUND ( 'NONE', #1030, .T. ) ;
#829 = AXIS2_PLACEMENT_3D ( 'NONE', #804, #507, #66 ) ;
#830 = CARTESIAN_POINT ( 'NONE',  ( -34.45386433470563503, 24.18082170246121620, -5.052169319926467672 ) ) ;
#831 = DIRECTION ( 'NONE',  ( -0.000000000000000000, -0.000000000000000000, -1.000000000000000000 ) ) ;
#832 = AXIS2_PLACEMENT_3D ( 'NONE', #761, #274, #994 ) ;
#833 = ORIENTED_EDGE ( 'NONE', *, *, #626, .T. ) ;
#834 = ADVANCED_FACE ( 'NONE', ( #1060 ), #665, .T. ) ;
#835 = CARTESIAN_POINT ( 'NONE',  ( 9.184850993605150311E-15, -1.000000000000000888, -75.00000000000001421 ) ) ;
#836 = CARTESIAN_POINT ( 'NONE',  ( 0.000000000000000000, 100.0000000000000000, 10.00000000000000178 ) ) ;
#837 = DIRECTION ( 'NONE',  ( -1.000000000000000000, 0.000000000000000000, 0.000000000000000000 ) ) ;
#838 = CARTESIAN_POINT ( 'NONE',  ( 23.33800478235812648, 22.02330849767081844, 5.978571999014679506 ) ) ;
#839 = ORIENTED_EDGE ( 'NONE', *, *, #90, .T. ) ;
#840 = DIRECTION ( 'NONE',  ( -0.000000000000000000, -0.000000000000000000, -1.000000000000000000 ) ) ;
#841 = DIRECTION ( 'NONE',  ( -1.000000000000000000, 0.000000000000000000, 0.000000000000000000 ) ) ;
#842 = FACE_OUTER_BOUND ( 'NONE', #970, .T. ) ;
#843 = CARTESIAN_POINT ( 'NONE',  ( 23.26613840166247371, 25.00000000000000711, 5.000000000000001776 ) ) ;
#844 = EDGE_LOOP ( 'NONE', ( #604, #892 ) ) ;
#845 = APPROVAL_ROLE ( '' ) ;
#846 = DIRECTION ( 'NONE',  ( 0.000000000000000000, 0.000000000000000000, -1.000000000000000000 ) ) ;
#847 = FACE_OUTER_BOUND ( 'NONE', #476, .T. ) ;
#848 = CARTESIAN_POINT ( 'NONE',  ( 25.18247520500341352, 20.00000000000000355, -10.00000000000000178 ) ) ;
#849 = EDGE_CURVE ( 'NONE', #112, #581, #239, .T. ) ;
#850 = AXIS2_PLACEMENT_3D ( 'NONE', #1051, #957, #494 ) ;
#851 = CIRCLE ( 'NONE', #708, 97.50000000000004263 ) ;
#852 = ORIENTED_EDGE ( 'NONE', *, *, #458, .F. ) ;
#853 = CARTESIAN_POINT ( 'NONE',  ( -33.66549729782618527, 20.00000000000000355, 5.000000000000001776 ) ) ;
#854 = DIRECTION ( 'NONE',  ( -0.000000000000000000, -0.000000000000000000, -1.000000000000000000 ) ) ;
#855 = DIRECTION ( 'NONE',  ( 1.000000000000000000, -0.000000000000000000, -0.000000000000000000 ) ) ;
#856 = AXIS2_PLACEMENT_3D ( 'NONE', #1016, #616, #457 ) ;
#857 = EDGE_CURVE ( 'NONE', #679, #363, #413, .T. ) ;
#858 = ORIENTED_EDGE ( 'NONE', *, *, #752, .F. ) ;
#859 = DIRECTION ( 'NONE',  ( -1.000000000000000000, 0.000000000000000000, 0.000000000000000000 ) ) ;
#860 = FACE_OUTER_BOUND ( 'NONE', #485, .T. ) ;
#861 = AXIS2_PLACEMENT_3D ( 'NONE', #769, #765, #175 ) ;
#862 = EDGE_CURVE ( 'NONE', #730, #112, #580, .T. ) ;
#863 = ORIENTED_EDGE ( 'NONE', *, *, #712, .T. ) ;
#864 = CIRCLE ( 'NONE', #210, 99.99999999999998579 ) ;
#865 = CARTESIAN_POINT ( 'NONE',  ( 19.80840972021939805, 20.00000000000000355, -10.00000000000000178 ) ) ;
#866 = CARTESIAN_POINT ( 'NONE',  ( 61.47880809800906832, 41.30284372434919504, 5.000000000000001776 ) ) ;
#867 = VERTEX_POINT ( 'NONE', #244 ) ;
#868 = DIRECTION ( 'NONE',  ( 0.000000000000000000, 0.000000000000000000, 1.000000000000000000 ) ) ;
#869 = EDGE_CURVE ( 'NONE', #191, #168, #394, .T. ) ;
#870 = DIRECTION ( 'NONE',  ( 0.000000000000000000, 0.000000000000000000, -1.000000000000000000 ) ) ;
#871 = CARTESIAN_POINT ( 'NONE',  ( -30.24618585502145152, 20.00000000000000355, -8.334558812615142642 ) ) ;
#872 = ORIENTED_EDGE ( 'NONE', *, *, #590, .F. ) ;
#873 = FACE_OUTER_BOUND ( 'NONE', #844, .T. ) ;
#874 = CARTESIAN_POINT ( 'NONE',  ( -38.52119190199092458, 41.30284372434919504, 5.000000000000001776 ) ) ;
#875 = APPROVAL_PERSON_ORGANIZATION ( #200, #403, #216 ) ;
#876 = ORIENTED_EDGE ( 'NONE', *, *, #492, .F. ) ;
#877 = CARTESIAN_POINT ( 'NONE',  ( 0.000000000000000000, -1.000000000000000888, 0.000000000000000000 ) ) ;
#878 = DIRECTION ( 'NONE',  ( 1.000000000000000000, 0.000000000000000000, -0.000000000000000000 ) ) ;
#879 = VERTEX_POINT ( 'NONE', #166 ) ;
#880 = CARTESIAN_POINT ( 'NONE',  ( -7.499999999999978684, 100.0000000000000000, 10.00000000000000178 ) ) ;
#881 = VERTEX_POINT ( 'NONE', #69 ) ;
#882 = AXIS2_PLACEMENT_3D ( 'NONE', #92, #589, #169 ) ;
#883 = AXIS2_PLACEMENT_3D ( 'NONE', #715, #1025, #646 ) ;
#884 = CARTESIAN_POINT ( 'NONE',  ( 14.97064550628285318, 99.06203778049800235, 5.000000000000001776 ) ) ;
#885 = ORIENTED_EDGE ( 'NONE', *, *, #109, .F. ) ;
#886 = CARTESIAN_POINT ( 'NONE',  ( 19.80840972021939805, 20.00000000000000355, -10.00000000000000178 ) ) ;
#887 = EDGE_CURVE ( 'NONE', #34, #653, #982, .T. ) ;
#888 = DIRECTION ( 'NONE',  ( -0.000000000000000000, -0.000000000000000000, -1.000000000000000000 ) ) ;
#889 = ORIENTED_EDGE ( 'NONE', *, *, #255, .F. ) ;
#890 = CARTESIAN_POINT ( 'NONE',  ( 61.47880809800906832, 41.30284372434919504, 2.500000000000055067 ) ) ;
#891 = CARTESIAN_POINT ( 'NONE',  ( 14.97064550628285318, 99.06203778049800235, 2.500000000000055955 ) ) ;
#892 = ORIENTED_EDGE ( 'NONE', *, *, #140, .T. ) ;
#893 = DIRECTION ( 'NONE',  ( -0.7071067811865474617, 0.000000000000000000, -0.7071067811865474617 ) ) ;
#894 = EDGE_LOOP ( 'NONE', ( #1005, #265, #905, #185, #539 ) ) ;
#895 = CONICAL_SURFACE ( 'NONE', #305, 180.0000000000000284, 0.7853981633974482790 ) ;
#896 = CARTESIAN_POINT ( 'NONE',  ( 61.47880809800906832, 41.30284372434919504, -5.000000000000001776 ) ) ;
#897 = ADVANCED_FACE ( 'NONE', ( #737 ), #802, .T. ) ;
#898 = CARTESIAN_POINT ( 'NONE',  ( -28.53474004479950565, 20.00000000000000355, -10.00000000000000178 ) ) ;
#899 = DIRECTION ( 'NONE',  ( -1.000000000000000000, 0.000000000000000000, 0.000000000000000000 ) ) ;
#900 = ADVANCED_FACE ( 'NONE', ( #60 ), #669, .T. ) ;
#901 = ORIENTED_EDGE ( 'NONE', *, *, #597, .T. ) ;
#902 = CARTESIAN_POINT ( 'NONE',  ( 25.18247520500363024, 20.00000000000000355, 4.999999999999999112 ) ) ;
#903 = CARTESIAN_POINT ( 'NONE',  ( 27.87823517535995066, 20.00000000000000355, 2.500000000000055955 ) ) ;
#904 = DIRECTION ( 'NONE',  ( 0.000000000000000000, 0.000000000000000000, -1.000000000000000000 ) ) ;
#905 = ORIENTED_EDGE ( 'NONE', *, *, #335, .F. ) ;
#906 = LINE ( 'NONE', #333, #967 ) ;
#907 = CARTESIAN_POINT ( 'NONE',  ( -33.58408986301707699, 22.59339085355408372, -5.613641655231352168 ) ) ;
#908 = CONICAL_SURFACE ( 'NONE', #126, 12.50000000000007994, 0.7853981633974447263 ) ;
#909 = CARTESIAN_POINT ( 'NONE',  ( 27.87823517535995066, 20.00000000000000355, -2.499999999999886757 ) ) ;
#910 = EDGE_CURVE ( 'NONE', #717, #823, #448, .T. ) ;
#911 = ORIENTED_EDGE ( 'NONE', *, *, #492, .T. ) ;
#912 = CARTESIAN_POINT ( 'NONE',  ( -33.66549729782598632, 25.00000000000000355, -5.000000000000001776 ) ) ;
#913 = CIRCLE ( 'NONE', #1021, 5.000000000000001776 ) ;
#914 = LINE ( 'NONE', #22, #93 ) ;
#915 = LINE ( 'NONE', #688, #72 ) ;
#916 = CC_DESIGN_PERSON_AND_ORGANIZATION_ASSIGNMENT ( #387, #709, ( #405 ) ) ;
#917 = ORIENTED_EDGE ( 'NONE', *, *, #278, .T. ) ;
#918 = CARTESIAN_POINT ( 'NONE',  ( -30.24618585501506018, 20.00000000000000355, 8.334558812621594370 ) ) ;
#919 = CARTESIAN_POINT ( 'NONE',  ( 0.000000000000000000, -1.000000000000000888, 0.000000000000000000 ) ) ;
#920 = DIRECTION ( 'NONE',  ( -1.000000000000000000, 0.000000000000000000, 0.000000000000000000 ) ) ;
#921 = DIRECTION ( 'NONE',  ( 0.000000000000000000, 0.000000000000000000, 1.000000000000000000 ) ) ;
#922 = ORIENTED_EDGE ( 'NONE', *, *, #319, .T. ) ;
#923 = DIRECTION ( 'NONE',  ( -1.000000000000000000, 0.000000000000000000, 0.000000000000000000 ) ) ;
#924 = DIRECTION ( 'NONE',  ( -0.000000000000000000, -0.000000000000000000, 1.000000000000000000 ) ) ;
#925 = CARTESIAN_POINT ( 'NONE',  ( -31.55756080149350140, 20.82265592558005096, -7.236364707552403353 ) ) ;
#926 = DIRECTION ( 'NONE',  ( 0.000000000000000000, 0.000000000000000000, 1.000000000000000000 ) ) ;
#927 = AXIS2_PLACEMENT_3D ( 'NONE', #460, #782, #859 ) ;
#928 = VERTEX_POINT ( 'NONE', #835 ) ;
#929 = DATE_AND_TIME ( #623, #258 ) ;
#930 = CARTESIAN_POINT ( 'NONE',  ( 0.000000000000000000, 20.00000000000000355, 70.00000000000000000 ) ) ;
#931 = DIRECTION ( 'NONE',  ( -0.000000000000000000, -0.000000000000000000, -1.000000000000000000 ) ) ;
#932 = EDGE_CURVE ( 'NONE', #117, #510, #906, .T. ) ;
#933 = AXIS2_PLACEMENT_3D ( 'NONE', #46, #382, #948 ) ;
#934 = CIRCLE ( 'NONE', #203, 180.0000000000000284 ) ;
#935 = ORIENTED_EDGE ( 'NONE', *, *, #289, .T. ) ;
#936 = PERSON_AND_ORGANIZATION_ROLE ( 'design_owner' ) ;
#937 = DIRECTION ( 'NONE',  ( 0.000000000000000000, 0.000000000000000000, 1.000000000000000000 ) ) ;
#938 = CARTESIAN_POINT ( 'NONE',  ( 0.000000000000000000, 20.00000000000000355, 0.000000000000000000 ) ) ;
#939 = PERSON ( 'UNSPECIFIED', 'UNSPECIFIED', 'UNSPECIFIED', ('UNSPECIFIED'), ('UNSPECIFIED'), ('UNSPECIFIED') ) ;
#940 = VECTOR ( 'NONE', #409, 1000.000000000000114 ) ;
#941 = ORIENTED_EDGE ( 'NONE', *, *, #278, .F. ) ;
#942 = CARTESIAN_POINT ( 'NONE',  ( 21.66968120539059228, 20.35084655430363654, -8.138143560749593775 ) ) ;
#943 = CARTESIAN_POINT ( 'NONE',  ( 194.6183915816770877, 87.80649114647422948, -2.499999999999888534 ) ) ;
#944 = ORIENTED_EDGE ( 'NONE', *, *, #462, .F. ) ;
#945 = ADVANCED_FACE ( 'NONE', ( #272 ), #675, .F. ) ;
#946 = AXIS2_PLACEMENT_3D ( 'NONE', #45, #293, #1027 ) ;
#947 = APPROVAL_STATUS ( 'not_yet_approved' ) ;
#948 = DIRECTION ( 'NONE',  ( 0.000000000000000000, 0.000000000000000000, 1.000000000000000000 ) ) ;
#949 = ADVANCED_FACE ( 'NONE', ( #668 ), #753, .F. ) ;
#950 = ORIENTED_EDGE ( 'NONE', *, *, #910, .T. ) ;
#951 = AXIS2_PLACEMENT_3D ( 'NONE', #120, #461, #716 ) ;
#952 = PRODUCT_RELATED_PRODUCT_CATEGORY ( 'detail', '', ( #763 ) ) ;
#953 = DIRECTION ( 'NONE',  ( 0.000000000000000000, 0.000000000000000000, 1.000000000000000000 ) ) ;
#954 = PERSON_AND_ORGANIZATION ( #939, #975 ) ;
#955 = DIRECTION ( 'NONE',  ( -1.000000000000000000, 0.000000000000000000, 0.000000000000000000 ) ) ;
#956 = ORIENTED_EDGE ( 'NONE', *, *, #161, .T. ) ;
#957 = DIRECTION ( 'NONE',  ( 0.000000000000000000, 0.000000000000000000, 1.000000000000000000 ) ) ;
#958 = ADVANCED_FACE ( 'NONE', ( #422, #828 ), #249, .F. ) ;
#959 = LOCAL_TIME ( 12, 4, 35.00000000000000000, #227 ) ;
#960 = EDGE_LOOP ( 'NONE', ( #720, #691 ) ) ;
#961 = LINE ( 'NONE', #231, #940 ) ;
#962 = CARTESIAN_POINT ( 'NONE',  ( 194.6183915816770877, 87.80649114647422948, -5.000000000000001776 ) ) ;
#963 = EDGE_CURVE ( 'NONE', #571, #199, #52, .T. ) ;
#964 = ORIENTED_EDGE ( 'NONE', *, *, #186, .T. ) ;
#965 = DIRECTION ( 'NONE',  ( 0.000000000000000000, 0.000000000000000000, 1.000000000000000000 ) ) ;
#966 = ORIENTED_EDGE ( 'NONE', *, *, #725, .F. ) ;
#967 = VECTOR ( 'NONE', #840, 1000.000000000000000 ) ;
#968 = CIRCLE ( 'NONE', #803, 75.00000000000001421 ) ;
#969 = DIRECTION ( 'NONE',  ( -1.000000000000000000, 0.000000000000000000, 0.000000000000000000 ) ) ;
#970 = EDGE_LOOP ( 'NONE', ( #321, #416, #901, #145 ) ) ;
#971 = CARTESIAN_POINT ( 'NONE',  ( -33.46627788940671167, 22.42784591001215588, 5.697578700284687159 ) ) ;
#972 = DIRECTION ( 'NONE',  ( 0.000000000000000000, 0.000000000000000000, 1.000000000000000000 ) ) ;
#973 = ORIENTED_EDGE ( 'NONE', *, *, #849, .F. ) ;
#974 = CARTESIAN_POINT ( 'NONE',  ( -9.041001190883752869, 108.6319347464192901, 5.000000000000001776 ) ) ;
#975 = ORGANIZATION ( 'UNSPECIFIED', 'UNSPECIFIED', '' ) ;
#976 = ORIENTED_EDGE ( 'NONE', *, *, #473, .T. ) ;
#977 = EDGE_CURVE ( 'NONE', #979, #37, #913, .T. ) ;
#978 = DIRECTION ( 'NONE',  ( -0.7057229970821664589, 0.04421596306044464630, -0.7071067811865487940 ) ) ;
#979 = VERTEX_POINT ( 'NONE', #428 ) ;
#980 = CARTESIAN_POINT ( 'NONE',  ( 194.6183915816770877, 87.80649114647422948, -2.499999999999888534 ) ) ;
#981 = ADVANCED_FACE ( 'NONE', ( #194 ), #218, .T. ) ;
#982 = CIRCLE ( 'NONE', #829, 5.000000000000001776 ) ;
#983 = CARTESIAN_POINT ( 'NONE',  ( 61.47880809800906832, 25.00000000000000355, -10.00000000000000178 ) ) ;
#984 = AXIS2_PLACEMENT_3D ( 'NONE', #262, #825, #677 ) ;
#985 = DIRECTION ( 'NONE',  ( -0.000000000000000000, -0.000000000000000000, -1.000000000000000000 ) ) ;
#986 = CARTESIAN_POINT ( 'NONE',  ( 23.26613840166224989, 25.00000000000000711, -5.000000000000001776 ) ) ;
#987 = ORIENTED_EDGE ( 'NONE', *, *, #503, .F. ) ;
#988 = CARTESIAN_POINT ( 'NONE',  ( 0.000000000000000000, 100.0000000000000000, -2.499999999999888534 ) ) ;
#989 = CARTESIAN_POINT ( 'NONE',  ( 5.000000000000001776, 100.0000000000000000, 4.999999999999998224 ) ) ;
#990 = CARTESIAN_POINT ( 'NONE',  ( 23.33250488691908586, 24.81893516773813602, -4.999999999999986677 ) ) ;
#991 = ORIENTED_EDGE ( 'NONE', *, *, #963, .T. ) ;
#992 = LOCAL_TIME ( 12, 4, 35.00000000000000000, #1035 ) ;
#993 = DIRECTION ( 'NONE',  ( 0.000000000000000000, 0.000000000000000000, 1.000000000000000000 ) ) ;
#994 = DIRECTION ( 'NONE',  ( -1.000000000000000000, -3.554255655223591074E-14, 0.000000000000000000 ) ) ;
#995 = CIRCLE ( 'NONE', #197, 180.0000000000000284 ) ;
#996 = CARTESIAN_POINT ( 'NONE',  ( 23.48660702895973884, 22.48462107017379097, 5.674827928310890890 ) ) ;
#997 = CC_DESIGN_DATE_AND_TIME_ASSIGNMENT ( #465, #277, ( #630 ) ) ;
#998 = EDGE_CURVE ( 'NONE', #141, #823, #631, .T. ) ;
#999 = AXIS2_PLACEMENT_3D ( 'NONE', #159, #164, #565 ) ;
#1000 = VERTEX_POINT ( 'NONE', #187 ) ;
#1001 = DIRECTION ( 'NONE',  ( 0.000000000000000000, 1.000000000000000000, 0.000000000000000000 ) ) ;
#1002 = DIRECTION ( 'NONE',  ( -1.000000000000000000, 0.000000000000000000, 0.000000000000000000 ) ) ;
#1003 = AXIS2_PLACEMENT_3D ( 'NONE', #585, #233, #224 ) ;
#1004 = CARTESIAN_POINT ( 'NONE',  ( 14.61839158167707531, 87.80649114647422948, -2.499999999999888534 ) ) ;
#1005 = ORIENTED_EDGE ( 'NONE', *, *, #473, .F. ) ;
#1006 = DIRECTION ( 'NONE',  ( 1.000000000000000000, 0.000000000000000000, 0.000000000000000000 ) ) ;
#1007 = CARTESIAN_POINT ( 'NONE',  ( 0.000000000000000000, 25.00000000000000355, 10.00000000000000178 ) ) ;
#1008 = CARTESIAN_POINT ( 'NONE',  ( -34.20762659048667587, 23.61289046493090638, -5.192303304265195152 ) ) ;
#1009 = DIRECTION ( 'NONE',  ( -1.000000000000000000, 0.000000000000000000, 0.000000000000000000 ) ) ;
#1010 = ORIENTED_EDGE ( 'NONE', *, *, #1041, .F. ) ;
#1011 = CALENDAR_DATE ( 2026, 12, 8 ) ;
#1012 = ADVANCED_FACE ( 'NONE', ( #748 ), #350, .T. ) ;
#1013 = APPROVAL_PERSON_ORGANIZATION ( #781, #584, #207 ) ;
#1014 = CARTESIAN_POINT ( 'NONE',  ( 0.000000000000000000, 15.00000000000000355, 70.00000000000000000 ) ) ;
#1015 = CARTESIAN_POINT ( 'NONE',  ( -38.52119190199092458, 41.30284372434919504, -2.499999999999888534 ) ) ;
#1016 = CARTESIAN_POINT ( 'NONE',  ( 0.000000000000000000, 100.0000000000000000, -2.499999999999888534 ) ) ;
#1017 = VERTEX_POINT ( 'NONE', #435 ) ;
#1018 = PERSON_AND_ORGANIZATION ( #939, #975 ) ;
#1019 = DIRECTION ( 'NONE',  ( 0.000000000000000000, 0.000000000000000000, 1.000000000000000000 ) ) ;
#1020 = DIRECTION ( 'NONE',  ( -1.000000000000000000, 0.000000000000000000, 0.000000000000000000 ) ) ;
#1021 = AXIS2_PLACEMENT_3D ( 'NONE', #104, #600, #86 ) ;
#1022 = CIRCLE ( 'NONE', #232, 182.5000000000001421 ) ;
#1023 = APPLICATION_CONTEXT ( 'configuration controlled 3d designs of mechanical parts and assemblies' ) ;
#1024 = ORIENTED_EDGE ( 'NONE', *, *, #498, .F. ) ;
#1025 = DIRECTION ( 'NONE',  ( 0.000000000000000000, 0.000000000000000000, -1.000000000000000000 ) ) ;
#1026 = CALENDAR_DATE ( 2026, 12, 8 ) ;
#1027 = DIRECTION ( 'NONE',  ( -1.000000000000000000, 0.000000000000000000, 0.000000000000000000 ) ) ;
#1028 = DIRECTION ( 'NONE',  ( 0.000000000000000000, 0.000000000000000000, -1.000000000000000000 ) ) ;
#1029 = VECTOR ( 'NONE', #893, 1000.000000000000114 ) ;
#1030 = EDGE_LOOP ( 'NONE', ( #578, #976, #863, #727, #743 ) ) ;
#1031 = APPROVAL_DATE_TIME ( #285, #584 ) ;
#1032 = CARTESIAN_POINT ( 'NONE',  ( -36.22579184107235761, 20.00000000000000355, -2.499999999999886757 ) ) ;
#1033 = EDGE_CURVE ( 'NONE', #561, #191, #516, .T. ) ;
#1034 = ORIENTED_EDGE ( 'NONE', *, *, #301, .F. ) ;
#1035 = COORDINATED_UNIVERSAL_TIME_OFFSET ( 5, 30, .AHEAD. ) ;
#1036 = CARTESIAN_POINT ( 'NONE',  ( -5.000000000000001776, 100.0000000000000000, 4.999999999999998224 ) ) ;
#1037 = CIRCLE ( 'NONE', #488, 182.5000000000001421 ) ;
#1038 = EDGE_LOOP ( 'NONE', ( #917, #858, #745, #588 ) ) ;
#1039 = AXIS2_PLACEMENT_3D ( 'NONE', #796, #1040, #379 ) ;
#1040 = DIRECTION ( 'NONE',  ( 0.000000000000000000, 0.000000000000000000, -1.000000000000000000 ) ) ;
#1041 = EDGE_CURVE ( 'NONE', #928, #515, #692, .T. ) ;
#1042 = CARTESIAN_POINT ( 'NONE',  ( 10.00000000000000000, 100.0000000000000000, 10.00000000000000178 ) ) ;
#1043 = ORIENTED_EDGE ( 'NONE', *, *, #44, .F. ) ;
#1044 = FACE_OUTER_BOUND ( 'NONE', #133, .T. ) ;
#1045 = ADVANCED_FACE ( 'NONE', ( #20 ), #353, .F. ) ;
#1046 = CARTESIAN_POINT ( 'NONE',  ( -28.53474004479950565, 20.00000000000000355, -10.00000000000000178 ) ) ;
#1047 = ORIENTED_EDGE ( 'NONE', *, *, #44, .T. ) ;
#1048 = CARTESIAN_POINT ( 'NONE',  ( -34.44998181258027614, 24.17012680573842331, 5.054103392715186160 ) ) ;
#1049 = EDGE_CURVE ( 'NONE', #212, #276, #315, .T. ) ;
#1050 = CIRCLE ( 'NONE', #598, 75.00000000000001421 ) ;
#1051 = CARTESIAN_POINT ( 'NONE',  ( 0.000000000000000000, 100.0000000000000000, 5.000000000000001776 ) ) ;
#1052 = VECTOR ( 'NONE', #142, 1000.000000000000000 ) ;
#1053 = EDGE_LOOP ( 'NONE', ( #182, #240, #950, #158 ) ) ;
#1054 = DIRECTION ( 'NONE',  ( 0.000000000000000000, 0.000000000000000000, -1.000000000000000000 ) ) ;
#1055 = CIRCLE ( 'NONE', #933, 70.00000000000000000 ) ;
#1056 = CARTESIAN_POINT ( 'NONE',  ( 61.47880809800906832, 41.30284372434919504, 5.000000000000001776 ) ) ;
#1057 = ORIENTED_EDGE ( 'NONE', *, *, #115, .T. ) ;
#1058 = CARTESIAN_POINT ( 'NONE',  ( -33.21898229268983016, 22.14228900646696374, 5.883729210060962167 ) ) ;
#1059 = ORIENTED_EDGE ( 'NONE', *, *, #498, .T. ) ;
#1060 = FACE_OUTER_BOUND ( 'NONE', #97, .T. ) ;
ENDSEC;
END-ISO-10303-21;
